<?xml version="1.0" encoding="UTF-8" standalone="no"?>
<!-- Created with Inkscape (http://www.inkscape.org/) -->

<svg
   xmlns:dc="http://purl.org/dc/elements/1.1/"
   xmlns:cc="http://creativecommons.org/ns#"
   xmlns:rdf="http://www.w3.org/1999/02/22-rdf-syntax-ns#"
   xmlns:svg="http://www.w3.org/2000/svg"
   xmlns="http://www.w3.org/2000/svg"
   xmlns:sodipodi="http://sodipodi.sourceforge.net/DTD/sodipodi-0.dtd"
   xmlns:inkscape="http://www.inkscape.org/namespaces/inkscape"
   width="210mm"
   height="297mm"
   id="svg9356"
   version="1.1"
   inkscape:version="0.48.1 "
   sodipodi:docname="casablanca_logo.svg">
  <defs
     id="defs9358" />
  <sodipodi:namedview
     id="base"
     pagecolor="#ffffff"
     bordercolor="#666666"
     borderopacity="1.0"
     inkscape:pageopacity="0.0"
     inkscape:pageshadow="2"
     inkscape:zoom="0.73417969"
     inkscape:cx="375"
     inkscape:cy="520"
     inkscape:document-units="px"
     inkscape:current-layer="layer1"
     showgrid="false"
     inkscape:window-width="1366"
     inkscape:window-height="706"
     inkscape:window-x="-8"
     inkscape:window-y="-8"
     inkscape:window-maximized="1" />
  <metadata
     id="metadata9361">
    <rdf:RDF>
      <cc:Work
         rdf:about="">
        <dc:format>image/svg+xml</dc:format>
        <dc:type
           rdf:resource="http://purl.org/dc/dcmitype/StillImage" />
        <dc:title></dc:title>
      </cc:Work>
    </rdf:RDF>
  </metadata>
  <g
     inkscape:label="Calque 1"
     inkscape:groupmode="layer"
     id="layer1">
    <g
       id="g9854">
      <g
         transform="matrix(22.313157,0,0,-22.313157,401.53585,315.05948)"
         id="g2228">
        <path
           inkscape:connector-curvature="0"
           id="path2230"
           style="fill:#2151a8;fill-opacity:1;fill-rule:evenodd;stroke:none"
           d="m 0,0 2.374,-7.496 c 0,0 -0.025,-0.506 -0.319,-0.161 l -2.349,2.162 -1.787,0.053 1.761,5.417 c 0,0 0.132,0.321 0.32,0.025" />
      </g>
      <g
         transform="matrix(22.313157,0,0,-22.313157,484.88192,499.59643)"
         id="g2232">
        <path
           inkscape:connector-curvature="0"
           id="path2234"
           style="fill:#2151a8;fill-opacity:1;fill-rule:evenodd;stroke:none"
           d="m 0,0 -0.614,1.656 5.791,0 c 0,0 0.294,-0.03 0.079,-0.241 l -6.297,-4.617 c 0,0 -0.374,-0.159 -0.212,0.346 L 0,0 z" />
      </g>
      <g
         transform="matrix(22.313157,0,0,-22.313157,455.13849,604.37722)"
         id="g2236">
        <path
           inkscape:connector-curvature="0"
           id="path2238"
           style="fill:#2151a8;fill-opacity:1;fill-rule:evenodd;stroke:none"
           d="m 0,0 1.387,0.987 1.788,-5.39 c 0,0 0.16,-0.481 -0.241,-0.268 l -6.271,4.618 c 0,0 -0.266,0.266 0.054,0.294 L 0,0 z" />
      </g>
      <g
         transform="matrix(22.313157,0,0,-22.313157,344.94505,606.13907)"
         id="g2240">
        <path
           inkscape:connector-curvature="0"
           id="path2242"
           style="fill:#2151a8;fill-opacity:1;fill-rule:evenodd;stroke:none"
           d="m 0,0 1.494,-1.123 -4.72,-3.439 c 0,0 -0.349,-0.242 -0.214,0.292 l 2.399,7.337 c 0,0 0.161,0.427 0.321,0.081 L 0,0 z" />
      </g>
      <g
         transform="matrix(22.313157,0,0,-22.313157,309.85093,504.3518)"
         id="g2244">
        <path
           inkscape:connector-curvature="0"
           id="path2246"
           style="fill:#2151a8;fill-opacity:1;fill-rule:evenodd;stroke:none"
           d="m 0,0 -0.56,-1.708 -4.643,3.309 c 0,0 -0.24,0.322 0.106,0.347 l 7.818,0 c 0,0 0.321,-0.079 0,-0.32 L 0,0 z" />
      </g>
      <g
         transform="matrix(22.313157,0,0,-22.313157,367.02382,491.25486)"
         id="g2248">
        <path
           inkscape:connector-curvature="0"
           id="path2250"
           style="fill:#2151a8;fill-opacity:1;fill-rule:evenodd;stroke:none"
           d="m 0,0 c 0,0 1.101,0.56 2.161,0.062 0,0 0.542,-0.241 0.502,-0.842 0,0 0,-0.58 -0.761,-0.841 0,0 1.041,-0.2 0.941,-1.059 0,0 -0.12,-0.862 -1.28,-1.041 0,0 -0.943,-0.141 -1.702,0.301 l 0.2,0.638 c 0,0 0.501,-0.42 1.42,-0.22 0,0 0.48,0.181 0.341,0.723 0,0 -0.08,0.438 -1.26,0.358 l 0,0.642 c 0,0 1.04,-0.261 1.22,0.419 0,0 0.04,0.481 -0.701,0.54 0,0 -0.461,-0.04 -0.859,-0.321 L 0,0 z" />
      </g>
      <g
         transform="matrix(22.313157,0,0,-22.313157,378.29198,742.58133)"
         id="g2252">
        <path
           inkscape:connector-curvature="0"
           id="path2254"
           style="fill:#2151a8;fill-opacity:1;fill-rule:evenodd;stroke:none"
           d="M 0,0 C 0.159,0 0.289,0.131 0.289,0.292 0.289,0.45 0.159,0.581 0,0.581 -0.16,0.581 -0.29,0.45 -0.29,0.292 -0.29,0.131 -0.16,0 0,0 m -7.216,0.077 c 0.158,0 0.287,0.13 0.287,0.29 0,0.159 -0.129,0.29 -0.287,0.29 -0.162,0 -0.29,-0.131 -0.29,-0.29 0,-0.16 0.128,-0.29 0.29,-0.29 m 0.771,0 c 0.159,0 0.291,0.13 0.291,0.29 0,0.159 -0.132,0.29 -0.291,0.29 -0.16,0 -0.289,-0.131 -0.289,-0.29 0,-0.16 0.129,-0.29 0.289,-0.29 m 2.778,-3.048 c -0.159,0 -0.289,-0.13 -0.289,-0.289 0,-0.16 0.13,-0.289 0.289,-0.289 0.161,0 0.291,0.129 0.291,0.289 0,0.159 -0.13,0.289 -0.291,0.289 m 0.772,0 c -0.161,0 -0.29,-0.13 -0.29,-0.289 0,-0.16 0.129,-0.289 0.29,-0.289 0.161,0 0.291,0.129 0.291,0.289 0,0.159 -0.13,0.289 -0.291,0.289 m 7.45,0 c -0.162,0 -0.29,-0.13 -0.29,-0.289 0,-0.16 0.128,-0.289 0.29,-0.289 0.16,0 0.287,0.129 0.287,0.289 0,0.159 -0.127,0.289 -0.287,0.289 m 0.771,0 c -0.16,0 -0.288,-0.13 -0.288,-0.289 0,-0.16 0.128,-0.289 0.288,-0.289 0.161,0 0.291,0.129 0.291,0.289 0,0.159 -0.13,0.289 -0.291,0.289 m -3.988,1.189 -2.267,0.024 0,0.828 1.678,0 c 0,0 0.589,-0.028 0.589,-0.321 l 0,-0.531 z m -7.312,-0.026 -1.307,0 c 0,0 -0.107,0.639 0.346,0.639 l 0.961,-0.028 0,-0.611 z m 6.778,1.492 -2.403,0 0,-1.466 -1.413,0 0,0.879 -0.668,0 0,-0.879 -1.627,0 0,1.52 -0.693,0 0,-0.374 -1.148,0 c -0.693,0 -0.799,-0.854 -0.799,-0.854 l 0,-0.854 1.761,0 0.186,0.132 0.159,-0.132 7.791,0 0,1.093 c 0,0.881 -1.146,0.935 -1.146,0.935 m 4.75,-0.533 -0.615,-0.027 0,-0.873 -1.734,0 0,2.714 -0.666,0 0,-3.283 3.015,0 0,1.469 z m 3.201,-0.9 -1.302,0 0,0.9 -0.62,0 0,-1.737 c 0,-0.424 -0.241,-0.399 -0.241,-0.399 l -0.399,0 0,-0.56 0.534,0 c 0.613,0 0.721,0.587 0.721,0.587 l 0,0.667 1.894,0 0,3.256 -0.587,0 0,-2.714 z m 1.894,2.739 -0.612,0 0,-3.334 0.632,0 -0.02,3.334 z" />
      </g>
    </g>
  </g>
</svg>
