<?xml version="1.0" encoding="utf-8"?>
<!-- Generator: Adobe Illustrator 22.1.0, SVG Export Plug-In . SVG Version: 6.00 Build 0)  -->
<svg version="1.1" id="Layer_1" xmlns="http://www.w3.org/2000/svg" xmlns:xlink="http://www.w3.org/1999/xlink" x="0px" y="0px"
	 viewBox="0 0 300 300" style="enable-background:new 0 0 300 300;" xml:space="preserve">
<style type="text/css">
	.st0{fill:#145B33;}
	.st1{fill:#10A651;}
	.st2{fill:#F8B134;}
	.st3{fill:#E63750;}
	.st4{fill:#F7B032;}
	.st5{fill:#E73850;}
	.st6{fill:#1080C4;}
	.st7{fill:#242021;}
	.st8{fill:#AB283D;}
	.st9{fill:#AB273D;}
	.st10{fill:#F7B131;}
	.st11{fill:#232121;}
	.st12{fill:#16A651;}
	.st13{fill:#17A650;}
	.st14{fill:#18A650;}
	.st15{fill:#16A652;}
	.st16{fill:#155B32;}
</style>
<g>
	<path class="st0" d="M28.4,281.5l-1.2,1.2c-0.8-0.9-1.8-1.3-2.8-1.3c-0.9,0-1.6,0.3-2.2,0.9c-0.6,0.6-0.9,1.3-0.9,2.2
		c0,0.6,0.1,1.2,0.4,1.6c0.3,0.5,0.6,0.8,1.1,1.1c0.5,0.3,1,0.4,1.6,0.4c0.5,0,1-0.1,1.4-0.3c0.4-0.2,0.9-0.5,1.4-1l1.2,1.2
		c-0.7,0.7-1.3,1.1-1.9,1.4c-0.6,0.3-1.3,0.4-2.1,0.4c-1.4,0-2.6-0.5-3.5-1.4c-0.9-0.9-1.4-2.1-1.4-3.5c0-0.9,0.2-1.7,0.6-2.4
		c0.4-0.7,1-1.3,1.8-1.7c0.8-0.4,1.6-0.7,2.5-0.7c0.8,0,1.5,0.2,2.2,0.5C27.3,280.5,27.9,280.9,28.4,281.5z"/>
	<path class="st0" d="M34.3,279.7c1.3,0,2.4,0.5,3.4,1.4c0.9,0.9,1.4,2.1,1.4,3.4c0,1.3-0.5,2.5-1.4,3.4c-0.9,0.9-2,1.4-3.4,1.4
		c-1.4,0-2.5-0.5-3.4-1.4c-0.9-1-1.4-2.1-1.4-3.4c0-0.9,0.2-1.7,0.6-2.4c0.4-0.7,1-1.3,1.8-1.8C32.6,279.9,33.4,279.7,34.3,279.7z
		 M34.3,281.4c-0.8,0-1.6,0.3-2.1,0.9c-0.6,0.6-0.9,1.3-0.9,2.3c0,1,0.4,1.8,1.1,2.4c0.6,0.5,1.2,0.7,2,0.7c0.8,0,1.5-0.3,2.1-0.9
		c0.6-0.6,0.9-1.3,0.9-2.2c0-0.9-0.3-1.6-0.9-2.2C35.8,281.7,35.1,281.4,34.3,281.4z"/>
	<path class="st0" d="M41.6,279.9h1.7l2.1,6.4l2.2-6.4h1.7l1.5,9.2h-1.7l-1-5.8l-2,5.8h-1.5l-1.9-5.8l-1,5.8H40L41.6,279.9z"/>
	<path class="st0" d="M52.1,279.9h1.7v9.2h-1.7V279.9z"/>
	<path class="st0" d="M54.9,279.9H60v1.7h-1.7v7.5h-1.8v-7.5h-1.6V279.9z"/>
	<path class="st0" d="M61.2,279.9h5v1.7H63v1.7h3.3v1.7H63v2.4h3.3v1.7h-5V279.9z M64,276.7h2l-2.3,2.5h-1.2L64,276.7z"/>
	<path class="st0" d="M71.5,279.9h1.7l3.9,6.1v-6.1h1.8v9.2h-1.7l-3.9-6v6h-1.7V279.9z"/>
	<path class="st0" d="M83.7,279.9h1.8l3.5,9.2h-1.8l-0.7-1.9h-3.8l-0.7,1.9h-1.8L83.7,279.9z M84.6,282.3l-1.2,3.2h2.5L84.6,282.3z"
		/>
	<path class="st0" d="M89.5,279.9h5.1v1.7h-1.7v7.5h-1.8v-7.5h-1.6V279.9z"/>
	<path class="st0" d="M95.7,279.9h1.7v9.2h-1.7V279.9z"/>
	<path class="st0" d="M103.7,279.7c1.3,0,2.4,0.5,3.4,1.4c0.9,0.9,1.4,2.1,1.4,3.4c0,1.3-0.5,2.5-1.4,3.4c-0.9,0.9-2,1.4-3.4,1.4
		c-1.4,0-2.5-0.5-3.4-1.4c-0.9-1-1.4-2.1-1.4-3.4c0-0.9,0.2-1.7,0.6-2.4c0.4-0.7,1-1.3,1.8-1.8C102.1,279.9,102.9,279.7,103.7,279.7
		z M103.7,281.4c-0.8,0-1.6,0.3-2.1,0.9c-0.6,0.6-0.9,1.3-0.9,2.3c0,1,0.4,1.8,1.1,2.4c0.6,0.5,1.2,0.7,2,0.7c0.8,0,1.5-0.3,2.1-0.9
		c0.6-0.6,0.9-1.3,0.9-2.2c0-0.9-0.3-1.6-0.9-2.2C105.3,281.7,104.5,281.4,103.7,281.4z"/>
	<path class="st0" d="M110.1,279.9h1.7l3.9,6.1v-6.1h1.8v9.2h-1.7l-3.9-6v6h-1.7V279.9z"/>
	<path class="st0" d="M122.4,279.9h1.8l3.5,9.2h-1.8l-0.7-1.9h-3.8l-0.7,1.9h-1.8L122.4,279.9z M123.3,282.3l-1.2,3.2h2.5
		L123.3,282.3z"/>
	<path class="st0" d="M129.1,279.9h1.8v7.5h2.6v1.7h-4.3V279.9z"/>
	<path class="st0" d="M142.7,279.7c1.3,0,2.4,0.5,3.4,1.4c0.9,0.9,1.4,2.1,1.4,3.4c0,1.3-0.5,2.5-1.4,3.4c-0.9,0.9-2,1.4-3.4,1.4
		c-1.4,0-2.5-0.5-3.4-1.4c-0.9-1-1.4-2.1-1.4-3.4c0-0.9,0.2-1.7,0.6-2.4c0.4-0.7,1-1.3,1.8-1.8C141,279.9,141.8,279.7,142.7,279.7z
		 M142.6,281.4c-0.8,0-1.6,0.3-2.1,0.9c-0.6,0.6-0.9,1.3-0.9,2.3c0,1,0.4,1.8,1.1,2.4c0.6,0.5,1.2,0.7,2,0.7c0.8,0,1.5-0.3,2.1-0.9
		c0.6-0.6,0.9-1.3,0.9-2.2c0-0.9-0.3-1.6-0.9-2.2C144.2,281.7,143.5,281.4,142.6,281.4z"/>
	<path class="st0" d="M149.1,279.9h1.8v7.5h2.6v1.7h-4.3V279.9z"/>
	<path class="st0" d="M154,279.9h1.9l1.7,3.3l1.7-3.3h1.9l-2.7,5.2v4h-1.8v-4L154,279.9z"/>
	<path class="st0" d="M163.5,279.9h1.7l2.1,6.4l2.2-6.4h1.7l1.5,9.2h-1.7l-1-5.8l-2,5.8h-1.5l-1.9-5.8l-1,5.8h-1.7L163.5,279.9z"/>
	<path class="st0" d="M174.2,279.9h1.9c1,0,1.7,0.1,2.2,0.3c0.4,0.2,0.8,0.5,1.1,0.9c0.3,0.4,0.4,0.9,0.4,1.5c0,0.6-0.2,1.2-0.5,1.6
		c-0.3,0.4-0.8,0.7-1.4,0.9c-0.3,0.1-1,0.1-1.8,0.1v3.9h-1.8V279.9z M175.9,283.5h0.6c0.4,0,0.7,0,0.9-0.1c0.2-0.1,0.3-0.2,0.4-0.3
		c0.1-0.1,0.1-0.3,0.1-0.5c0-0.4-0.1-0.6-0.4-0.8c-0.2-0.1-0.6-0.2-1.1-0.2h-0.5V283.5z"/>
	<path class="st0" d="M181.2,279.9h1.7v9.2h-1.7V279.9z"/>
	<path class="st0" d="M192.8,287.8l1.6,2.1h-2.1l-0.8-1c-0.7,0.4-1.4,0.6-2.3,0.6c-1.4,0-2.5-0.5-3.4-1.4c-0.9-1-1.4-2.1-1.4-3.4
		c0-0.9,0.2-1.7,0.6-2.4c0.4-0.7,1-1.3,1.8-1.8c0.7-0.4,1.5-0.7,2.4-0.7c1.3,0,2.4,0.5,3.4,1.4c0.9,0.9,1.4,2.1,1.4,3.5
		C194.1,285.8,193.6,286.9,192.8,287.8z M191.7,286.4c0.4-0.6,0.6-1.2,0.6-1.8c0-0.9-0.3-1.6-0.9-2.2c-0.6-0.6-1.3-0.9-2.1-0.9
		c-0.9,0-1.6,0.3-2.2,0.9c-0.6,0.6-0.9,1.3-0.9,2.3c0,1,0.4,1.8,1.1,2.4c0.6,0.5,1.2,0.7,1.9,0.7c0.4,0,0.8-0.1,1.2-0.2l-1.6-2.1
		h2.1L191.7,286.4z"/>
	<path class="st0" d="M195.6,279.9h1.8v6c0,0.5,0,0.9,0.1,1.1c0.1,0.2,0.2,0.4,0.4,0.5c0.2,0.1,0.5,0.2,0.7,0.2
		c0.3,0,0.6-0.1,0.8-0.2c0.2-0.1,0.4-0.3,0.5-0.5c0.1-0.2,0.1-0.6,0.1-1.3v-5.7h1.8v5.5c0,0.9-0.1,1.6-0.2,1.9
		c-0.1,0.4-0.3,0.7-0.6,1c-0.3,0.3-0.6,0.6-1,0.7c-0.4,0.2-0.8,0.2-1.3,0.2c-0.7,0-1.2-0.2-1.7-0.5c-0.5-0.3-0.8-0.7-1.1-1.2
		c-0.2-0.5-0.3-1.2-0.3-2.3V279.9z"/>
	<path class="st0" d="M203.9,279.9h5v1.7h-3.3v1.7h3.3v1.7h-3.3v2.4h3.3v1.7h-5V279.9z"/>
	<path class="st0" d="M215,279.9h1.7l2.1,6.4l2.2-6.4h1.7l1.5,9.2h-1.7l-1-5.8l-2,5.8h-1.5l-1.9-5.8l-1,5.8h-1.7L215,279.9z"/>
	<path class="st0" d="M228.5,279.9h1.8l3.5,9.2H232l-0.7-1.9h-3.8l-0.7,1.9h-1.8L228.5,279.9z M229.4,282.3l-1.2,3.2h2.5
		L229.4,282.3z"/>
	<path class="st0" d="M235.3,279.9h1.9c1,0,1.7,0.1,2.2,0.3c0.4,0.2,0.8,0.5,1,0.9c0.3,0.4,0.4,0.9,0.4,1.5c0,0.6-0.1,1.1-0.4,1.5
		c-0.3,0.4-0.7,0.7-1.3,0.9l2.2,4.1h-1.9l-2.1-3.9H237v3.9h-1.7V279.9z M237,283.5h0.5c0.6,0,0.9-0.1,1.2-0.2
		c0.2-0.2,0.3-0.4,0.3-0.7c0-0.2-0.1-0.4-0.2-0.5c-0.1-0.2-0.2-0.3-0.4-0.3c-0.2-0.1-0.5-0.1-1-0.1H237V283.5z"/>
	<path class="st0" d="M246.9,279.7c1.3,0,2.4,0.5,3.4,1.4c0.9,0.9,1.4,2.1,1.4,3.4c0,1.3-0.5,2.5-1.4,3.4c-0.9,0.9-2,1.4-3.4,1.4
		c-1.4,0-2.5-0.5-3.4-1.4c-0.9-1-1.4-2.1-1.4-3.4c0-0.9,0.2-1.7,0.6-2.4c0.4-0.7,1-1.3,1.8-1.8C245.3,279.9,246.1,279.7,246.9,279.7
		z M246.9,281.4c-0.8,0-1.6,0.3-2.1,0.9c-0.6,0.6-0.9,1.3-0.9,2.3c0,1,0.4,1.8,1.1,2.4c0.6,0.5,1.2,0.7,2,0.7c0.8,0,1.5-0.3,2.1-0.9
		c0.6-0.6,0.9-1.3,0.9-2.2c0-0.9-0.3-1.6-0.9-2.2C248.5,281.7,247.8,281.4,246.9,281.4z"/>
	<path class="st0" d="M261.8,281.5l-1.2,1.2c-0.8-0.9-1.8-1.3-2.8-1.3c-0.9,0-1.6,0.3-2.2,0.9c-0.6,0.6-0.9,1.3-0.9,2.2
		c0,0.6,0.1,1.2,0.4,1.6c0.3,0.5,0.6,0.8,1.1,1.1c0.5,0.3,1,0.4,1.6,0.4c0.5,0,1-0.1,1.4-0.3c0.4-0.2,0.9-0.5,1.4-1l1.2,1.2
		c-0.7,0.7-1.3,1.1-1.9,1.4c-0.6,0.3-1.3,0.4-2.1,0.4c-1.4,0-2.6-0.5-3.5-1.4c-0.9-0.9-1.4-2.1-1.4-3.5c0-0.9,0.2-1.7,0.6-2.4
		c0.4-0.7,1-1.3,1.8-1.7c0.8-0.4,1.6-0.7,2.5-0.7c0.8,0,1.5,0.2,2.2,0.5C260.7,280.5,261.3,280.9,261.8,281.5z"/>
	<path class="st0" d="M266.1,279.9h1.8l3.5,9.2h-1.8l-0.7-1.9h-3.8l-0.7,1.9h-1.8L266.1,279.9z M267,282.3l-1.2,3.2h2.5L267,282.3z"
		/>
	<path class="st0" d="M272.7,279.9h1.7v9.2h-1.7V279.9z"/>
	<path class="st0" d="M276.4,279.9h1.7l3.9,6.1v-6.1h1.8v9.2h-1.7l-3.9-6v6h-1.7V279.9z"/>
</g>
<g>
	<path class="st1" d="M191.1,219.1c-1-0.1-2-0.5-3.1-0.5c-0.6,5.5-3.2,9.8-8.1,12.5c-5.4,3-12.6,2.2-17.2-1.9
		c-2.8-2.5-4.5-5.7-5.1-9.4c-0.1-0.4-0.1-0.9,0-1.3l0,0c-0.2-0.9-0.1-1.7-0.1-2.6c0-0.3,0.2-0.6,0.5-0.7l0,0
		c-0.5-0.2-0.3-0.5-0.2-0.8c0.9-4.1,3.1-7.3,6.6-9.6c1-0.7,2.1-1.3,3.4-1.6c0.3-1.1,0.3-2.3,0.2-3.4l0,0
		c-7.5,2.1-12.6,8.1-13.6,15.7c0,0.2-0.1,0.4-0.1,0.5c0,0.8,0,1.5,0,2.3c0.1,0.7-0.3,0.8-0.8,0.8l0,0c0.6,0,0.9,0.1,0.9,0.8
		c0.8,7.7,7,14.4,14.6,15.8c0.3,0.1,0.6,0.1,0.9,0.3c1.8,0,3.5,0,5.3,0c1.2-0.3,2.4-0.5,3.5-1C186,232.3,190.2,227,191.1,219.1z"/>
	<path class="st2" d="M151,219.8c0.1-0.4,0.2-0.6,0.5-0.6l0,0c-1.2-0.2-2.3-0.3-3.5-0.5l0,0c-0.3,2.6-1,5-2.4,7.2
		c-3.3,5.5-10.4,8.4-16.7,6.7c-5.7-1.5-9.4-5.2-11.1-10.8c-0.3-1-0.5-2.1-0.5-3.2l0,0c-0.1-1.1-0.2-2.3,0.2-3.4l0,0
		c0.1-2.3,1.1-4.3,2.4-6.1c1.9-2.8,4.4-4.8,7.7-5.8c0.4-1.1,0.3-2.3,0.2-3.4c-5.7,1.7-9.8,5.3-12.3,10.7c-0.8,1.7-1.2,3.6-1.4,5.5
		c0,1,0,2.1-0.1,3.1l0,0l0,0c0,0.2,0.1,0.4,0.1,0.5c1,7.3,4.9,12.3,11.7,15.2c1.2,0.5,2.6,0.7,3.9,1.2c1.9,0,3.9,0,5.9,0
		c1.5-0.6,3.1-0.8,4.5-1.5C146.4,231.6,150.1,226.7,151,219.8z"/>
	<path class="st3" d="M202.7,153.1c2.2-1.3,4.6-2.2,7-2.7c2-0.4,4.2-0.6,6.1,0.3c1.8,0.9,3.1,2.2,3,4.5c0.9-1.3,1.1-2.9,1.1-4.4
		c0-9.5,0-18.9,0-28.4c0-0.6-0.2-1.1-0.6-1.5c-2.6-2.8-5.8-4.6-9.4-5.8c-4.9-1.7-10-2.5-15-1.1c-6.5,1.8-13.1,3.3-19.8,4.4
		c-6.7,1.1-13.3,1.9-20.1,2.1c-6.1,0.2-12.3-0.3-18.4-1.1c-7.3-0.9-14.5-2.2-21.7-4c-2.1-0.5-4.2-1.2-6.3-1.6
		c-3.6-0.7-7.3-0.4-10.8,0.5c-4.7,1.2-8.9,3.1-12.3,6.6c-0.5,0.5-0.6,0.9-0.6,1.6c0,6.6,0,13.3,0,19.9c0,2.9,0,5.9,0,8.8
		c0,1.5,0.3,2.9,1.1,4.2l0,0c-0.7-2.2,2.2-4.8,4.6-5.1c2.9-0.3,5.5,0.4,8.1,1.3c2,0.7,3.8,1.7,5.5,2.9c0.2,0.2,0.5,0.3,0.6,0.5v0
		c0.4,0,0.8,0.3,1.1,0.5c10.3,5.8,21.2,10,32.9,12c6.9,1.2,13.8,1.3,20.8,0.8c6-0.5,11.9-1.8,17.7-3.6c7.5-2.3,14.7-5.5,21.6-9.4
		c0.3-0.2,0.5-0.4,0.9-0.1l0,0C200.6,154.1,201.7,153.7,202.7,153.1z M152.5,123.9c0.3,0,0.3,0.3,0.3,0.5c1.3,4,2.6,8.1,3.9,12.1
		c0.4,1.4,0.5,1.3-1.1,1.4c-0.8,0.2-1.2-0.3-1.4-1.2c-0.4-1.6-1-3.1-1.5-4.7c-0.1-0.2-0.1-0.5-0.4-0.5c-0.3,0-0.3,0.3-0.3,0.5
		c-1.4,4.4-2.8,8.8-4.3,13.3c-0.1,0.2-0.2,0.5-0.2,0.7c-0.1,0.2-0.2,0.3-0.4,0.3c-1.1-0.2-1.8-1.4-1.4-2.5
		c2.1-6.4,4.2-12.9,6.3-19.3C152.2,124.2,152.1,123.8,152.5,123.9z M132.7,139.8c-0.1-0.1-0.2-0.1-0.2-0.2c-0.2-0.3-0.8-0.3-0.7-0.8
		c0.1-0.4,0.6-0.1,0.9-0.1c4.3,0,8.6,0,12.9,0c0.8,0,1,0.2,0.7,0.9c-0.6,1.6-0.2,1.6-2.3,1.6c-1.4,0-2.9,0-4.3,0
		c-0.2,0-0.5-0.1-0.8,0.2c4,2.9,7.9,5.8,11.9,8.6c0.9,0.6,0.9,0.7,0,1.3c-1.2,0.9-1.2,0.8-2.4,0
		C143.2,147.4,137.9,143.6,132.7,139.8z M140.2,163c-0.2,0.1-0.3,0.4-0.6,0.3c-0.3-0.2-0.1-0.5,0-0.7c1.4-4.3,2.8-8.5,4.2-12.8
		c0.2-0.5,0.4-0.7,0.9-0.3c0.3,0.3,0.6,0.5,1,0.7c0.2,0.1,0.4,0.3,0.4,0.5c-0.3,1-0.6,2-0.9,2.9c-0.3,1-0.6,1.9-0.9,2.9
		c-0.1,0.2-0.3,0.4,0,0.6c0.2,0.1,0.3-0.1,0.5-0.2c3.8-2.8,7.7-5.5,11.5-8.4c0.7-0.5,1-0.3,1.2,0.4c0.4,1.4,0.5,1.4-0.7,2.2
		C151.2,155.1,145.7,159,140.2,163z M165.2,163.4c-2.6-1.9-5.2-3.8-7.8-5.6c-1.2-0.9-2.4-1.8-3.6-2.7c-0.4-0.3-0.5-0.5,0-0.8
		c0.1,0,0.1-0.1,0.2-0.1c1.4-1,1.3-1,2.7,0c1.2,0.9,2.4,1.8,3.6,2.7c0.2,0.1,0.3,0.4,0.5,0.2c0.2-0.2,0-0.4,0-0.6
		c-1.4-4.4-2.9-8.8-4.4-13.2c-0.4-1.2-0.4-1.1,0.8-1.2c1.1-0.1,1.5,0.3,1.8,1.3c1.3,4,2.6,8.1,3.9,12.1c0.8,2.5,1.6,4.9,2.4,7.4
		C165.3,162.9,165.4,163.1,165.2,163.4z M171,140.7c-3,2.2-5.9,4.3-8.9,6.5c-0.6,0.4-0.9,0.5-1.1-0.3c-0.5-1.5-0.5-1.5,0.7-2.4
		c1.3-0.9,2.6-1.8,3.8-2.8c0.2-0.1,0.5-0.2,0.4-0.4c-0.1-0.3-0.4-0.2-0.7-0.2c-4.8,0-9.6,0-14.4,0c-0.6,0-0.8-0.2-0.6-0.8
		c0.1-0.3,0.2-0.6,0.3-0.9c0.2-0.6,0.5-0.8,1.1-0.8c6.1,0,12.2,0,18.3,0c1.1,0,2.1,0,3.4,0C172.6,139.6,171.8,140.1,171,140.7z"/>
	<path class="st4" d="M97.2,63.1c-2.2,1.6-2.7,4.2-1.4,6.4c1.3,2.3,3.9,3,6.4,1.9c0.5-0.2,0.7-0.3,0.8,0.4c0.7,3.4,1.7,6.7,3.3,9.8
		c0.5,0.9,0.4,1.4-0.5,1.9c-0.9,0.5-1.5,1.2-2,2.1c-1.2,2.1,0,4.5,2.4,4.7c1.4,0.2,2.7-0.3,4-0.9c1.3-0.7,2.8-1.4,4.3-1.7
		c-1.3,1.6-2.6,3.1-4,4.7c-0.6,0.7-0.5,1.1,0.3,1.4c0.4,0.2,0.8,0.3,1.3,0.4c1.6,0.5,3.2,1,4.8,1.5c-0.1,0.3-0.3,0.3-0.5,0.4
		c-3.1,0.9-6.2,2-9.1,3.5c-1.5,0.8-3,1.7-3.7,3.5c-0.6,1.6,0,3.2,1.6,3.8c1.2,0.5,2.5,0.5,3.7,0c0.9-0.4,1.8-0.9,2.7-1.3
		c5.2-2.3,10.7-3.5,16.3-4.6c4.5-0.9,9-1.5,13.5-2c4.6-0.5,9.2-1,13.9-0.7c6.2,0.4,12.3,1.2,18.4,2.2c4.7,0.8,9.4,1.8,14.1,3.2
		c2.6,0.8,5.1,1.9,7.5,3.1c1,0.5,2,0.6,3,0.4c1.3-0.2,2.3-0.9,2.7-2.2c0.5-1.6-0.3-2.9-1.5-3.9c-2.4-1.9-5.2-2.9-8-3.9
		c-1.3-0.5-2.6-0.8-3.9-1.3c0.2-0.3,0.4-0.3,0.6-0.4c1.7-0.6,3.5-1.1,5.2-1.6c1.2-0.4,1.3-0.8,0.5-1.7c-1.1-1.2-2.2-2.4-3.3-3.7
		c-0.2-0.2-0.6-0.4-0.6-0.9c1.4,0.5,2.8,1.1,4.1,1.8c1.2,0.6,2.4,1.1,3.8,1c1.4-0.1,2.4-0.7,2.9-1.9c0.6-1.2,0.2-2.4-0.6-3.4
		c-0.6-0.7-1.2-1.3-2-1.7c-0.5-0.3-0.5-0.5-0.2-1c1.8-3.2,3-6.7,3.6-10.3c0.1-0.6,0.3-0.8,0.8-0.5c0.3,0.2,0.7,0.4,1.1,0.5
		c2.4,0.4,4.6-0.7,5.6-2.7c1-2.1,0.3-4.6-1.7-6c-0.5-0.4-0.4-0.5,0-0.9c0.8-0.6,1.5-1.4,1.8-2.4c0.8-2.4-0.1-4.6-2.4-6
		c-0.5-0.3-0.6-0.5-0.2-1c1.3-1.5,1.5-3.2,0.8-4.9c-0.8-2-2.3-3-4.5-3.1c-0.5,0-0.7-0.1-0.4-0.7c0.5-1.1,0.5-2.3,0-3.5
		c-1-2.4-2.8-3.4-5.5-3.1c-0.6,0.1-0.9,0.1-0.8-0.7c0.3-3.8-3.6-6.5-7-4.8c-0.6,0.3-0.7,0.3-0.8-0.4c-0.2-1.9-1.4-3.2-3.1-3.8
		c-1.7-0.6-3.3-0.4-4.7,0.8c-0.7,0.7-1.1,0.7-1.7-0.2c-1.5-2.3-4.8-2.7-6.9-1c-2.2,1.8-2.5,4.9-0.7,7c0.4,0.5,1.1,0.8,1.5,1.3
		c-0.1,0.1-0.1,0.2-0.2,0.2c-3.1,0.9-5.9,2.5-8.3,4.7c-0.5,0.4-0.7,0.2-1.1-0.1c-2.8-3-6.2-5.3-9.9-7.2c-0.8-0.4-1.4-0.4-2.1,0
		c-3.8,1.9-7.2,4.3-10.1,7.3c-0.3,0.3-0.5,0.5-0.9,0.1c-2.3-2.1-4.9-3.7-7.9-4.7c-0.2-0.1-0.5-0.1-0.5-0.3c-0.1-0.3,0.3-0.3,0.5-0.5
		c0.3-0.3,0.7-0.5,1-0.9c1.8-2.3,1.3-5.6-1.1-7.3c-2.2-1.5-5.4-0.8-6.9,1.7c-0.3,0.5-0.5,0.6-0.9,0.1c-1.4-1.5-3.2-1.8-5-1.2
		c-1.8,0.6-2.9,1.9-3.3,3.8c-0.1,0.7-0.3,0.6-0.8,0.4c-3.7-1.6-7.4,1.1-7,5.1c0.1,0.7-0.1,0.6-0.6,0.5c-4.1-0.7-7,2.7-5.7,6.5
		c0.2,0.5,0.1,0.7-0.4,0.7c-2,0-3.5,1-4.3,2.8c-0.9,1.9-0.7,3.7,0.7,5.3c0.4,0.5,0.2,0.6-0.2,0.9c-3.4,1.8-3.8,6-0.7,8.3
		C97.6,62.5,97.8,62.6,97.2,63.1z M114.8,93.5c-0.7-0.2-1.4-0.4-2.1-0.6c-0.5-0.1-0.7-0.3-0.3-0.8c1.5-1.6,2.9-3.3,4.4-4.9
		c0.3-0.3,0.6-0.3,0.9-0.2c2,0.6,4,1.3,6,1.9c0.6,0.2,0.9,0.4,0.3,1c-1.4,1.4-2.6,2.9-3.9,4.4c-0.3,0.3-0.5,0.6-1.1,0.5
		C117.7,94.4,116.2,93.9,114.8,93.5z M178.3,89.5c1.2,1.4,2.4,2.8,3.7,4.2c0.2,0.2,0.5,0.3,0.4,0.8c-1-0.2-2-0.4-3-0.6
		c-1.5-0.3-3.1-0.6-4.6-0.9c-0.2,0-0.5,0.1-0.6-0.2c-0.1-0.3,0.2-0.3,0.4-0.5c2.3-1.7,3-4.1,2-6.6c-0.3-0.7-0.8-1.2-1.5-2
		c3.5,0.5,6.6,1.3,9.7,2.3c-1.4,0.4-2.7,0.9-4.1,1.3c-0.7,0.2-1.4,0.4-2.1,0.6C177.8,88.4,177.7,88.8,178.3,89.5z M175.6,88.7
		c-0.5,2.2-2.5,3.5-4.8,3.2c-2.1-0.3-4.2-0.6-6.3-0.9c-2.3-0.3-3.8-2-3.7-4.4c0.1-1.8,2.2-3.9,4.2-3.6c2.5,0.4,5,0.6,7.5,1.1
		C174.7,84.5,176.1,86.6,175.6,88.7z M161.4,91.4c0,0.2-0.2,0.2-0.3,0.1c-2.2-0.3-4.5-0.2-6.7-0.5c0,0-0.1-0.1-0.2-0.2
		c1.6-1.2,3.1-2.5,4.7-3.7c0.2-0.2,0.4-0.1,0.5,0.2c0.1,1.5,0.7,2.8,1.9,3.7C161.4,91.1,161.4,91.3,161.4,91.4z M159.7,85.1
		c-0.1,0.3-0.4,0.2-0.6,0c-1.6-1.2-3.1-2.5-4.7-3.7c0-0.1,0.1-0.2,0.1-0.2c2.7,0.2,5.3,0.3,8.3,0.8
		C161.3,82.8,160.2,83.7,159.7,85.1z M157.6,85.6c0.4,0.3,0.5,0.5,0.1,0.8c-1.6,1.3-3.3,2.6-4.9,3.8c-0.1,0.1-0.3,0.1-0.4,0.2
		c-0.2-0.1-0.4-0.2-0.6-0.3c-1.6-1.2-3.1-2.5-4.7-3.7c-0.4-0.3-0.4-0.5,0-0.8c1.6-1.2,3.2-2.5,4.7-3.7c0.4-0.3,0.6-0.4,1.1-0.1
		C154.4,83.1,156,84.3,157.6,85.6z M150.3,91c-2.4,0.1-4.9,0.3-7.6,0.5c1.5-1.2,2.3-2.6,2.4-4.3c0-0.4,0.2-0.4,0.5-0.2
		C147.2,88.3,148.8,89.5,150.3,91z M149,82.3c-1.2,1-2.4,1.9-3.5,2.8c-0.3,0.3-0.6,0.4-0.8-0.1c-0.5-1.3-1.5-2.3-2.7-3.1
		c2.7-0.4,5.4-0.6,8.2-0.8C149.9,81.8,149.4,82,149,82.3z M143.6,86.5c0.1,2.4-1.3,4.1-3.6,4.4c-2.1,0.3-4.3,0.6-6.4,0.9
		c-2.4,0.4-4.5-1.1-4.9-3.4c-0.3-2.2,1.2-4.2,3.6-4.5c2.4-0.4,4.9-0.7,6.4-0.9C142,82.9,143.6,85,143.6,86.5z M130.4,92.9
		c-2.9,0.5-5.6,1-8.6,1.6c1.4-1.6,2.6-2.9,3.8-4.3c1.5-1.6,1.4-1.8-0.6-2.4c-1.6-0.5-3.1-1-4.7-1.5c-0.2-0.1-0.5-0.1-0.5-0.3
		c0-0.2,0.2-0.3,0.4-0.3c2.8-0.7,5.7-1.3,8.5-1.9c0.1,0,0.2,0,0.4,0.1C126.5,88.3,126.8,89.8,130.4,92.9z M197,100.9
		c1,0.5,1.8,1.1,2.4,2.1c0.7,1.1,0.2,2.3-1.1,2.6c-1.3,0.3-2.4-0.1-3.5-0.7c-3.7-2-7.8-3.1-11.9-4.1c-4.4-1.1-8.8-1.9-13.2-2.5
		c-4.1-0.6-8.2-1.1-12.4-1.4c-1.6-0.1-3.2-0.2-4.8-0.2c-5.1,0.1-10.1,0.6-15.1,1.3c-4.6,0.6-9.3,1.4-13.8,2.4
		c-4.7,1-9.3,2.2-13.6,4.4c-1,0.5-2,1.1-3.2,1c-0.8-0.1-1.6-0.3-2-1.1c-0.4-0.8,0-1.5,0.5-2.1c1.2-1.4,2.9-2.1,4.5-2.8
		c3.9-1.8,8-2.9,12.2-3.8c6.4-1.4,12.9-2.3,19.5-3c7.8-0.8,15.6-0.6,23.3,0.2c5.5,0.6,11,1.4,16.4,2.5
		C186.7,96.8,192,98.3,197,100.9z M191.9,91.9c0.3,0.4,0.5,0.7-0.2,0.9c-2.1,0.6-4.2,1.3-6.3,1.9c-0.1,0-0.2,0-0.2,0
		c-0.5,0.1-0.7-0.2-0.9-0.4c-1.4-1.6-2.8-3.2-4.2-4.7c-0.3-0.4-0.3-0.6,0.2-0.7c2.1-0.7,4.3-1.4,6.4-2.1c0.4-0.1,0.7,0.1,1,0.4
		C189.1,88.8,190.5,90.4,191.9,91.9z M198.3,84.9c0.5,0.3,0.9,0.7,1.1,1.2c0.7,1.4,0.1,2.4-1.4,2.6c-0.2,0-0.4,0-0.6,0.1
		c-0.6,0-1.3-0.1-1.9-0.4c-3.6-2-7.5-3.2-11.5-4.2c-7.2-1.8-14.5-2.9-21.8-3.8c-5.2-0.6-10.3-0.9-15.5-0.4c-4.5,0.4-9,1-13.5,1.7
		c-4.7,0.7-9.3,1.6-13.8,2.8c-3.5,0.9-6.9,2-10,3.8c-1,0.5-2,0.7-3.1,0.5c-1.4-0.3-1.9-1.6-1-2.8c0.9-1.3,2.2-1.9,3.6-2.5
		c3.5-1.7,7.2-2.8,11-3.8c3.6-0.9,7.2-1.6,10.8-2.1c2.8-0.4,5.7-0.7,8.5-1c3.3-0.3,6.5-0.8,9.8-0.8c0.6,0,1.2,0,1.8,0.2
		c1.1,0.4,2.2,0.4,3.2,0c0.6-0.2,1.2-0.3,1.8-0.2c6.4,0.4,12.8,1,19.1,2c5.9,0.9,11.7,2.1,17.3,4.2
		C194.2,82.7,196.4,83.5,198.3,84.9z M154.6,67c-0.1,0-0.1-0.1-0.2-0.3c3.3-1.7,4.2-6.7-0.2-9.2c1.1-0.7,2-1.3,2.6-2.5
		c0.9-2.1,0.4-4.4-1.3-5.8c-0.7-0.5-0.9-0.8,0-1.4c0.9-0.6,1.4-1.4,1.6-2.5c0-0.2,0-0.4,0.4-0.6c0.6,0.8,0.8,1.7,1.1,2.6
		c1.3,3.4,2.2,6.9,2.8,10.4c0.9,5.2,1,10.5,0.3,15.8c-0.1,0.9-0.4,1.3-1.4,1.1c-1-0.2-2.1-0.2-3.1-0.2c-0.5,0-0.7-0.1-0.4-0.7
		C157.9,71.5,157.2,68.3,154.6,67z M152.3,58.7c2,0,3.6,1.6,3.6,3.6c0,1.9-1.6,3.4-3.5,3.4c-2.1,0-3.6-1.5-3.6-3.5
		C148.8,60.3,150.4,58.7,152.3,58.7z M152.3,56.4c-2,0-3.6-1.6-3.5-3.5c0-1.9,1.6-3.5,3.6-3.5c2,0,3.5,1.6,3.5,3.6
		C155.8,54.9,154.2,56.4,152.3,56.4z M152.5,67.7c1.8,0,3.4,1.7,3.4,3.5c0,2-1.6,3.6-3.6,3.5c-2,0-3.6-1.5-3.5-3.4
		C148.8,69.2,150.4,67.7,152.5,67.7z M152.3,47.6c-2.1,0-3.6-1.5-3.6-3.6c0-1.9,1.7-3.5,3.5-3.5c2,0,3.6,1.6,3.6,3.6
		C155.8,46.1,154.3,47.6,152.3,47.6z M149.5,48.1c0.4,0.3,0.5,0.5,0,0.9c-3.2,2.3-2.5,6.8,0.5,8.3c0.8,0.4,0.1,0.6-0.2,0.7
		c-2.8,1.8-3.2,5.1-1.1,7.5c0.2,0.2,0.4,0.4,0.6,0.5c0.9,0.7,0.9,0.7,0.1,1.3c-2,1.5-2.5,3.9-1.3,6.1c0.4,0.7,0.2,0.8-0.5,0.8
		c-1.1,0-2.1,0.1-3.2,0.2c-0.7,0.1-1.1-0.1-1.2-0.9c-0.6-4-0.7-8.1-0.2-12.1c0.6-5.4,1.9-10.7,4-15.7c0.1-0.3,0.2-0.7,0.6-0.9
		C147.7,46.2,148.4,47.3,149.5,48.1z M208.2,66.9c0,2-1.6,3.7-3.5,3.6c-2,0-3.6-1.6-3.6-3.7c0-1.3,1.4-3.5,3.6-3.4
		C206.6,63.5,208.2,65.1,208.2,66.9z M208.2,58.1c0,2-1.5,3.7-3.5,3.7c-1.9,0-3.6-1.7-3.5-3.5c0-2.1,1.4-3.6,3.4-3.6
		C206.5,54.7,208.1,56.2,208.2,58.1z M202.9,46.2c1.9,0,3.5,1.6,3.6,3.5c0,2-1.5,3.5-3.6,3.6c-1.9,0-3.5-1.5-3.5-3.4
		C199.3,47.8,200.9,46.2,202.9,46.2z M198,38.9c1.9,0,3.5,1.7,3.5,3.6c0,1.9-1.6,3.5-3.5,3.5c-2,0-3.6-1.6-3.6-3.6
		C194.4,40.5,196.1,38.9,198,38.9z M198,48.6c-0.1-0.5-0.9-0.7-0.4-1.2c0.2-0.2,0.6-0.2,0.8,0C198.8,47.9,198.2,48.2,198,48.6z
		 M191.4,33c1.9,0,3.5,1.6,3.5,3.6c0,1.9-1.6,3.4-3.5,3.4c-2,0-3.6-1.5-3.6-3.4C187.8,34.6,189.4,33,191.4,33z M183.6,29
		c2,0,3.5,1.6,3.5,3.6c0,1.8-1.7,3.5-3.5,3.5c-2,0-3.6-1.6-3.6-3.6C180.1,30.6,181.7,29,183.6,29z M180.8,36.9
		c2.1,0.4,4,1.1,5.9,2.1c0.4,0.2,0.7,0.5,1,0.9c0.4,0.4,1.1,0.7,1.6,1c1.9,1.1,3.2,2.5,4.4,4.2c0.7,1,1.6,1.8,2.2,2.8
		c1.7,2.8,3.2,5.6,3.7,8.8c0.3,1.7,0.5,3.4,1,5.1c0.4,1.2,0.2,2.3-0.5,3.5c-0.7,1.2-0.7,2.6,0,3.9c0.3,0.6,0.3,1.1,0.2,1.7
		c-0.7,3.6-1.8,7.1-3.4,10.3c-0.4,0.8-0.7,1.1-1.6,0.6c-2-1-4.1-1.7-6.3-2.3c-0.9-0.3-0.6-0.6-0.3-1.1c2.2-2.8,3.7-6,4.8-9.4
		c1.1-3.8,1.3-7.7,1.3-11.7c0-8-3.9-13.7-10.2-18c-1.3-0.9-2.7-1.4-4.2-1.9c-0.9-0.3-1.7-0.4-2.5-0.6
		C178.9,36.7,179.8,36.6,180.8,36.9z M171.5,31.5c0-2,1.4-3.5,3.4-3.6c1.7-0.1,3.8,1.7,3.6,3.5c0,1.9-1.5,3.6-3.3,3.7
		C173.1,35.1,171.5,33.6,171.5,31.5z M165.3,41.9c3.5-2.5,7.3-4,11.7-3.8c2.6,0.2,5,1,7.2,2.4c4.4,2.9,7.4,6.9,8.8,11.9
		c0.5,1.7,0.5,3.5,0.5,5.2c0.2,3.9-0.2,7.7-1.4,11.5c-1.1,3.4-2.7,6.4-5,9.1c-0.3,0.4-0.7,0.4-1.2,0.3c-3.9-1-7.9-1.8-11.9-2.4
		c-0.7-0.1-0.7-0.4-0.7-1c0.4-2.3,0.3-4.7,0.2-7.1c-0.2-7.8-1.9-15.2-6.1-22c-0.7-1.1-1.5-2.2-2.3-3.3
		C164.9,42.4,164.9,42.2,165.3,41.9z M159.9,39.4c5.3,4.5,8.6,10.2,10.6,16.7c1.8,6.2,2.2,12.6,1.6,19c-0.1,0.5-0.2,0.7-0.8,0.6
		c-2.6-0.3-5.1-0.7-7.7-0.9c-0.8,0-1-0.3-0.9-1.2c0.8-4,0.7-8,0.4-12c-0.4-4.8-1.5-9.5-3.1-14c-1.3-3.9-3.1-7.6-5.1-11.2
		c-0.1-0.2-0.2-0.3-0.3-0.5C156.6,36.8,158.3,38,159.9,39.4z M152.1,35.2c0.1-0.2,0.4-0.2,0.5,0c0.9,1.5,1.8,3,2.5,4.7
		c-1.8-1-3.5-0.9-5.5,0.1C150.3,38.1,151.3,36.7,152.1,35.2z M149.6,35.9c0.1-0.1,0.3-0.1,0.4,0c-0.8,1.5-1.6,3-2.3,4.5
		c-2.6,5.3-4.5,10.9-5.6,16.7c-0.8,4.7-1.1,9.5-0.7,14.3c0.1,0.8,0.2,1.7,0.3,2.5c0.1,0.6-0.1,0.8-0.6,0.8c-2.6,0.3-5.2,0.6-7.8,0.9
		c-0.7,0.1-0.9-0.2-1-0.9c-0.3-4-0.2-8,0.3-12c0.6-4.8,2-9.4,4.3-13.7C140,43.5,144.2,39.2,149.6,35.9z M137.4,40.6
		c0.7,0.4,1.4,0.9,2.1,1.3c0.4,0.3,0.4,0.5,0.1,0.9c-5,6.2-7.4,13.5-8.3,21.3c-0.4,3.7-0.5,7.3-0.1,11c0.1,0.6-0.1,0.9-0.8,1
		c-4.1,0.6-8.1,1.4-12.1,2.5c-0.5,0.1-0.8,0-1.1-0.4c-1.9-2.4-3.4-4.9-4.4-7.8c-1.3-3.6-1.7-7.4-1.7-11.6c0.1-2.3-0.1-5.1,0.9-7.7
		c2.1-5.4,5.6-9.6,11-11.9C128,37.1,132.8,37.9,137.4,40.6z M129.8,27.9c1.8,0,3.4,1.6,3.4,3.4c0,2-1.5,3.7-3.4,3.7
		c-2.1,0-3.6-1.5-3.6-3.6C126.2,29.4,127.7,27.9,129.8,27.9z M121.2,29c1.9,0,3.4,1.6,3.4,3.6c0,2-1.5,3.5-3.5,3.5
		c-2,0-3.5-1.5-3.5-3.5C117.5,30.6,119.2,29,121.2,29z M121.8,37.4c1.2-0.4,2.5-0.7,3.9-0.6c-1.1,0.6-2.2,0.7-3.3,1.2
		c-3.9,1.7-6.8,4.5-9.2,8c-2.4,3.5-3.4,7.5-3.4,11.8c0,4.5,0.3,8.9,1.8,13.2c1,2.7,2.3,5.2,4.1,7.5c0.4,0.5,0.6,0.7-0.3,1
		c-2.2,0.7-4.5,1.4-6.6,2.5c-0.6,0.3-0.8-0.1-1-0.5c-1-1.9-1.7-3.8-2.4-5.8c-0.5-1.6-0.8-3.2-1.2-4.7c-0.1-0.5-0.1-1,0.2-1.5
		c0.9-1.7,0.7-3.4-0.3-5.1c-0.7-1.2-0.3-2.4,0.2-3.5c0.2-0.6,0.7-1.2,0.6-1.9c-0.3-3.3,1.2-6.1,2.6-8.9c0.8-1.7,1.9-3.1,3-4.5
		c1-1.2,1.9-2.5,3.1-3.5c0.4-0.4,0.8-0.7,1.4-0.8c0.7-0.2,1.3-0.5,1.7-1.1C118,38.5,119.9,38,121.8,37.4z M113.3,33
		c1.9,0,3.6,1.6,3.6,3.5c0,2.1-1.7,3.7-3.7,3.6c-1.9,0-3.4-1.6-3.4-3.5C109.8,34.6,111.4,33,113.3,33z M106.7,38.9
		c2,0,3.6,1.7,3.6,3.6c0,1.9-1.7,3.5-3.6,3.5c-1.9,0-3.5-1.6-3.5-3.5C103.2,40.6,104.8,38.9,106.7,38.9z M98.3,49.6
		c0-1.8,1.7-3.4,3.5-3.4c1.8,0,3.5,1.6,3.6,3.2c0,2.3-1.7,4-3.6,3.8C99.8,53.3,98.3,51.7,98.3,49.6z M96.5,58.2
		c0-1.9,1.6-3.5,3.5-3.5c1.9,0,3.5,1.5,3.5,3.5c0,2-1.5,3.6-3.5,3.6C98,61.8,96.5,60.3,96.5,58.2z M100,63.5c2.1,0,3.5,1.5,3.5,3.6
		c0,2-1.6,3.5-3.6,3.4c-1.9,0-3.5-1.6-3.5-3.5C96.5,65.1,98.1,63.5,100,63.5z"/>
	<path class="st5" d="M223.7,137.1c-0.7,0-0.8,0.3-0.8,0.9c0,3.6,0,7.1,0,10.7c0.1,3.7-1.9,6.2-4.6,8.3c-0.2,0.1-0.4,0.2-0.6,0.1
		c-1.6,1.7-3.8,2.6-6,3.4c-2.1,0.9-4.4,1.3-6.5,1.9c-2.1,0.6-4,1.3-5.3,3.1c0,0,0,0,0,0c-0.3,2.7,1,4.6,3.7,5.1
		c1.1,0.2,2.2,0.2,3.3-0.1c2.8-0.8,5.6-1.6,8.4-2.3c4.9-1.2,9.8-2.4,14.9-2.1c4.2,0.2,8.3,1,12.4,1.8c2.1,0.4,4.1,0.9,6.2,1.3
		c0-0.4-0.2-0.5-0.4-0.7c-4.8-5-9.6-9.9-14.3-14.9c-0.6-0.6-0.6-0.9,0-1.5c4.7-4.1,9.5-8.1,14.4-12c0.2-0.2,0.6-0.3,0.6-0.6
		c-0.2-0.2-0.5-0.2-0.7-0.3C240.2,137.7,232,137.2,223.7,137.1z"/>
	<path class="st5" d="M97.7,162c-2.4-0.5-4.7-1.3-6.9-2.3c-1.3-0.6-2.6-1.3-3.6-2.5c-0.2,0.1-0.3,0.1-0.4,0c-2.7-2-4.8-4.3-4.8-7.9
		c0-3.7,0-7.4,0-11.1c0-0.8-0.3-1-1-1c-3.2,0-6.5,0.1-9.7,0.3c-4.8,0.3-9.6,0.9-14.4,1.8c-0.3,0.1-0.8,0-0.9,0.4
		c-0.1,0.3,0.4,0.5,0.6,0.7c4.9,3.8,9.6,7.8,14.3,11.9c0.6,0.5,0.7,0.9,0.1,1.5c-4,4.1-8,8.2-11.9,12.4c-1,1-1.9,2-2.9,3.1
		c1,0,2-0.3,2.9-0.5c4.9-1.1,9.8-2,14.8-2.5c5.5-0.5,10.7,0.8,15.9,2.1c2.9,0.7,5.7,1.6,8.5,2.3c3,0.8,7.2-0.4,6.7-5
		C103.1,163.3,100.4,162.6,97.7,162z"/>
	<path class="st6" d="M114.2,216c-6.5,0.4-11.5-2.1-14.9-7.7c-3.8-6.3-2.2-14.9,3.6-19.4c4.8-3.8,10.1-4.6,15.7-2.2
		c5.3,2.2,8.3,6.4,9.2,12.1c0.1,0.4,0,0.8,0.1,1.1c0.1,1.1,0.2,2.3-0.2,3.4c-1,5.6-4.2,9.4-9.3,11.7c-0.3,0.1-0.5,0.2-0.8,0.3
		c-0.4,1.1-0.3,2.2-0.2,3.4c7.3-1.9,12.7-8.2,13.6-15.8c0-0.1,0.1-0.2,0.1-0.4l0,0l0,0c0-1,0-2.1,0.1-3.1l0,0l0,0
		c-0.1-0.7-0.2-1.5-0.4-2.2c-2-9.8-11.3-16.2-21.1-14.7c-8.9,1.4-15.4,9-15.5,18.1c-0.1,6.2,2.5,11.2,7.4,15c3.7,2.8,7.9,4,12.6,3.6
		l0,0C114.2,218.1,114.2,217,114.2,216z"/>
	<path class="st3" d="M177.3,199.7L177.3,199.7L177.3,199.7c0.5-4.7,2.5-8.5,6.3-11.4c6.6-4.9,16.2-3.6,21.2,3
		c3.9,5.2,4.4,10.9,1.3,16.7c-3.1,5.6-8.1,8.2-14.5,8c-0.2,0-0.4-0.1-0.5-0.1c-1.2,0-2.3-0.3-3.3-0.7l0,0c-5.2-1.5-9.6-6.8-10.2-12
		c-1-0.6-2.1-0.8-3.3-0.7l0,0c0.4,7.1,5.9,13.9,12.9,15.9c0.3,0.1,0.6,0.2,0.9,0.3c1.1,0,2.1,0.3,3.1,0.5c0.7,0,1.5,0,2.3,0
		c4.4-0.1,8.3-1.7,11.5-4.6c5.4-4.9,7.4-11.1,5.7-18.1c-1.6-6.8-6-11.4-12.7-13.3c-6.5-1.9-12.5-0.5-17.6,4c-3.6,3.2-5.6,7.3-6,12.1
		C175.2,199.3,176.2,199.5,177.3,199.7z"/>
	<path class="st7" d="M137.3,199.7L137.3,199.7L137.3,199.7c0.4-7.3,6.4-13.5,13.6-14.2c7.7-0.7,14.6,3.9,16.5,11.2
		c0.3,1,0.4,2.1,0.5,3.1l0,0l0,0c0.2,1.1,0.2,2.3-0.2,3.4c-1,5.9-4.4,9.8-9.8,12l0,0l0,0c-0.3,0.1-0.5,0.4-0.5,0.7
		c0,0.9-0.2,1.7,0.1,2.6l0,0l0,0c6.6-1.5,12.3-7.8,13.3-14.6c0.1-0.5,0.2-1,0.2-1.5c0.1-1,0.1-2.1,0-3.1l0,0c-0.4-3.2-1.4-6.2-3.3-9
		c-6.7-9.9-21.5-10.7-29.2-1.6c-2.6,3-4,6.5-4.5,10.4C135.2,199.5,136.2,199.7,137.3,199.7z"/>
	<path class="st8" d="M104.4,154.4c-1.8-1.1-3.6-2.1-5.5-2.9c-2.6-0.9-5.2-1.6-8.1-1.3c-2.4,0.3-5.3,2.9-4.6,5.1l0,0
		c0.1,0.7,0.5,1.3,1.1,1.8l0,0c1,1.1,2.3,1.8,3.6,2.5c2.2,1.1,4.5,1.8,6.9,2.3c2.7,0.6,5.4,1.3,7.3,3.6c0-3.6,0-7.1,0.1-10.7
		c0,0,0,0,0,0C104.9,154.7,104.6,154.6,104.4,154.4z"/>
	<path class="st9" d="M205.2,162.5c2.2-0.6,4.4-1.1,6.5-1.9c2.1-0.9,4.3-1.7,6-3.4c0.5-0.5,0.9-1.2,1.1-1.9l0,0
		c0.1-2.2-1.2-3.6-3-4.5c-1.9-1-4.1-0.8-6.1-0.3c-2.5,0.5-4.9,1.4-7,2.7c-1,0.6-2,1-2.7,2l0,0c-0.1,3.5-0.1,7,0,10.5c0,0,0,0,0,0
		C201.3,163.8,203.2,163.1,205.2,162.5z"/>
	<path class="st10" d="M140,18.7c2.1,1.7,4.2,3.3,6.3,4.9c0.5,0.4,0.5,0.7,0.3,1.3c-1,2.8-2,5.6-3,8.4c-0.1,0.3-0.3,0.5-0.1,0.9
		c2.7-1.8,5.3-3.6,7.8-5.5c0.6-0.4,1-0.5,1.6,0c1.9,1.4,3.9,2.7,5.9,4.1c0.7,0.5,1.3,1.1,2.2,1.4c-1.1-3.2-2.2-6.2-3.3-9.3
		c-0.3-0.7-0.1-1.1,0.5-1.5c2.1-1.6,4.1-3.2,6.1-4.8c0.2-0.2,0.7-0.3,0.5-0.7c-0.1-0.3-0.6-0.1-0.9-0.1c-2.6,0-5.3,0-7.9,0
		c-0.7,0-1.1-0.3-1.3-0.9c-0.3-0.9-0.6-1.8-0.9-2.7c-0.6-1.5-1-3-1.7-4.5c-0.3,0.3-0.4,0.7-0.6,1.1c-0.8,2.1-1.5,4.1-2.2,6.2
		c-0.2,0.6-0.5,0.8-1.1,0.8c-2.6,0-5.3,0-7.9,0c-0.3,0-0.7-0.2-0.9,0.2C139.4,18.4,139.8,18.5,140,18.7z M150.6,27.7
		c-1.4,1-2.9,2-4.4,3c-0.1-0.1-0.1-0.1-0.2-0.2c0.6-1.7,1.2-3.3,1.8-5c0.2-0.5,0.4-0.4,0.7-0.1c0.7,0.6,1.4,1.1,2,1.7
		C150.9,27.3,151,27.5,150.6,27.7z M158.3,30.3c0,0.1,0,0.3,0,0.3c-0.1,0.2-0.3,0-0.4,0c-1.3-0.9-2.7-1.9-4-2.8
		c-0.2-0.2-0.4-0.4-0.1-0.6c0.7-0.6,1.5-1.2,2.3-1.8c0,0,0.1,0,0.2-0.1c0.3,0,0.4,0.2,0.4,0.4C157.1,27.2,157.7,28.7,158.3,30.3z
		 M156.3,19.2c1.6,0,3.3,0,4.9,0c0,0.1,0,0.1,0.1,0.2c-1.2,1-2.5,1.9-3.7,2.9c-0.4,0.4-0.7,0.2-0.8-0.2c-0.3-0.8-0.6-1.5-0.8-2.3
		C155.8,19.5,155.9,19.2,156.3,19.2z M150.8,17.3c0.5-1.2,0.8-2.4,1.5-3.8c0.5,1.4,0.9,2.5,1.3,3.7c0.2,0.4,0.1,0.7-0.4,0.7
		c-0.6,0-1.2,0-1.9,0C150.9,17.9,150.6,17.8,150.8,17.3z M149.3,21.5c0-0.1,0-0.1,0.1-0.2c0.7-2.1,0.7-2.1,2.8-2.1c2,0,2,0,2.7,1.9
		c0.1,0.2,0.1,0.4,0.2,0.5c0.8,2.2,0.8,2.2-1,3.5c-0.1,0.1-0.2,0.1-0.2,0.1c-1.8,1.3-1.8,1.3-3.5-0.1
		C148.6,23.7,148.6,23.7,149.3,21.5z M143.3,19.2c1.6,0,3.2,0,4.8,0c0.3,0,0.6,0,0.4,0.5c-0.3,0.8-0.6,1.7-0.9,2.6
		c-0.1,0.3-0.3,0.5-0.5,0.3c-1.3-1-2.6-2.1-3.9-3.1C143.2,19.4,143.3,19.3,143.3,19.2z"/>
	<path class="st2" d="M131.1,202.4L131.1,202.4c1.1,0,2.2-0.3,3.2,0.2c1.2-0.3,2.2,0,3.2,0.7c0,0,0,0,0,0c0.9-0.1,1.6,0.4,2.2,0.8
		c4.5,2.4,7.2,6.2,8.1,11.2c1,0.5,2.1,0.7,3.2,0.7c-0.6-5.9-3.4-10.4-8.2-13.8c-1.3-0.9-2.8-1.6-4.3-2.1c-0.4-0.1-0.8-0.3-1.2-0.5
		l0,0c-1.1,0-2.1-0.1-3.1-0.6c-1,0.3-2.1,0-3.1,0.2l0,0C131.1,200.4,131.1,201.4,131.1,202.4z"/>
	<path class="st1" d="M171,202.4c1.1,0,2.2-0.1,3.2,0.1l0,0l0,0c1.2,0,2.2,0.1,3.3,0.7c1.2,0.2,2.2,0.8,3.2,1.4
		c3.7,2.3,6,5.7,6.9,10c0,0.2,0,0.4,0,0.6c1.1,0.4,2.2,0.7,3.3,0.7c-0.4-6.9-5.6-13.5-12.3-15.7c-0.5-0.2-0.9-0.3-1.4-0.5l0,0
		c-1-0.2-2-0.3-3.1-0.5c-1-0.1-2.1,0-3.1,0.1l0,0C171.1,200.3,171.2,201.3,171,202.4z"/>
	<path class="st11" d="M151,216c-1.1-0.1-2.2-0.3-3.2-0.7c-1.5-0.2-2.7-1-3.9-1.8c-3.5-2.5-5.7-5.8-6.4-10.1l0,0c0,0,0,0,0,0
		c-1-0.6-2.1-1-3.2-0.7c1.1,8,5.6,13.3,13.3,15.8c0.2,0.1,0.4,0.1,0.5,0.2l0,0l0,0c1.2,0.2,2.3,0.3,3.5,0.5l0,0c0.6,0,1.3,0,1.9,0
		l0,0c0.5,0,0.9-0.2,0.8-0.8c-0.1-0.7,0-1.5,0-2.3C153.1,216.1,152.1,216.2,151,216z"/>
	<path class="st12" d="M151.7,138.7c-0.6,0-1,0.2-1.1,0.8c-0.1,0.3-0.2,0.6-0.3,0.9c-0.2,0.6-0.1,0.8,0.6,0.8c4.8,0,9.6,0,14.4,0
		c0.2,0,0.6-0.2,0.7,0.2c0.1,0.3-0.2,0.3-0.4,0.4c-1.3,0.9-2.6,1.8-3.8,2.8c-1.2,0.9-1.2,0.9-0.7,2.4c0.3,0.8,0.5,0.8,1.1,0.3
		c3-2.2,5.9-4.3,8.9-6.5c0.8-0.6,1.7-1.1,2.5-2c-1.3,0-2.4,0-3.4,0C163.9,138.7,157.8,138.7,151.7,138.7z"/>
	<path class="st13" d="M157.3,148.9c-0.2-0.7-0.4-1-1.2-0.4c-3.8,2.8-7.6,5.6-11.5,8.4c-0.1,0.1-0.3,0.3-0.5,0.2
		c-0.3-0.2-0.1-0.4,0-0.6c0.3-1,0.6-1.9,0.9-2.9c0.3-0.9,0.6-1.9,0.9-2.9c0-0.2-0.1-0.3-0.4-0.5c-0.3-0.2-0.7-0.5-1-0.7
		c-0.5-0.4-0.7-0.3-0.9,0.3c-1.4,4.3-2.8,8.5-4.2,12.8c-0.1,0.2-0.3,0.5,0,0.7c0.2,0.1,0.4-0.1,0.6-0.3c5.5-4,10.9-7.9,16.4-11.9
		C157.8,150.3,157.8,150.3,157.3,148.9z"/>
	<path class="st14" d="M150.9,151.3c0.9-0.6,0.8-0.6,0-1.3c-4-2.9-7.9-5.7-11.9-8.6c0.3-0.3,0.5-0.2,0.8-0.2c1.4,0,2.9,0,4.3,0
		c2,0,1.6,0.1,2.3-1.6c0.3-0.7,0.1-0.9-0.7-0.9c-4.3,0-8.6,0-12.9,0c-0.3,0-0.8-0.3-0.9,0.1c-0.2,0.4,0.5,0.5,0.7,0.8
		c0.1,0.1,0.2,0.1,0.2,0.2c5.3,3.8,10.6,7.6,15.8,11.5C149.7,152.1,149.7,152.2,150.9,151.3z"/>
	<path class="st15" d="M147.2,146.2c0.3,0.1,0.3-0.1,0.4-0.3c0.1-0.2,0.2-0.5,0.2-0.7c1.4-4.4,2.9-8.8,4.3-13.3
		c0.1-0.2,0.1-0.5,0.3-0.5c0.3,0,0.3,0.3,0.4,0.5c0.5,1.6,1.1,3.1,1.5,4.7c0.2,0.9,0.6,1.4,1.4,1.2c1.5,0,1.5,0,1.1-1.4
		c-1.3-4-2.6-8-3.9-12.1c-0.1-0.2,0-0.5-0.3-0.5c-0.4,0-0.3,0.3-0.4,0.5c-2.1,6.4-4.2,12.9-6.3,19.3
		C145.4,144.8,146.1,146,147.2,146.2z"/>
	<path class="st1" d="M162.9,155.3c-1.3-4-2.7-8-3.9-12.1c-0.3-1-0.7-1.4-1.8-1.3c-1.2,0.1-1.2,0-0.8,1.2c1.5,4.4,2.9,8.8,4.4,13.2
		c0.1,0.2,0.2,0.4,0,0.6c-0.2,0.2-0.4-0.1-0.5-0.2c-1.2-0.9-2.4-1.8-3.6-2.7c-1.3-1-1.3-1-2.7,0c-0.1,0-0.1,0.1-0.2,0.1
		c-0.5,0.3-0.4,0.5,0,0.8c1.2,0.9,2.4,1.8,3.6,2.7c2.6,1.9,5.2,3.7,7.8,5.6c0.2-0.3,0.2-0.5,0.1-0.6
		C164.5,160.3,163.7,157.8,162.9,155.3z"/>
</g>
<g>
	<path class="st16" d="M21.8,243.7c0.2-0.1,0.5-0.4,0.8-0.8c0.1,0.1,0.2,0.3,0.3,0.4c0.1,0.1,0.3,0.2,0.6,0.2c0.3,0,0.6-0.1,0.9-0.3
		c0.3-0.2,0.4-0.4,0.4-0.7c0-0.2-0.1-0.4-0.3-0.7c-0.2-0.3-0.4-0.4-0.7-0.4c-0.4,0-0.7,0.1-0.9,0.3c-0.2,0.2-0.4,0.5-0.5,0.9
		c-0.2-0.3-0.3-0.6-0.4-0.7c-0.1-0.1-0.4-0.2-0.7-0.2c-0.3,0-0.6,0.1-0.8,0.2c-0.2,0.1-0.3,0.4-0.3,0.8c0,0.3,0.1,0.6,0.3,0.8
		c0.2,0.2,0.4,0.3,0.7,0.3C21.5,243.8,21.7,243.8,21.8,243.7z"/>
	<path class="st16" d="M37.4,255.5c-0.3,0-0.6,0.1-0.8,0.3c-0.2,0.2-0.3,0.4-0.3,0.7c0,0.3,0.1,0.5,0.3,0.8c0.2,0.2,0.4,0.4,0.6,0.4
		c0.4,0,0.6-0.1,0.8-0.4s0.3-0.5,0.3-0.8c0-0.3-0.1-0.6-0.2-0.7C38,255.5,37.7,255.5,37.4,255.5z"/>
	<path class="st16" d="M39.2,255.7c-0.2,0.2-0.3,0.4-0.3,0.7c0,0.4,0.1,0.7,0.3,0.8c0.2,0.1,0.4,0.2,0.5,0.3c0.3,0,0.6-0.1,0.9-0.3
		c0.3-0.2,0.4-0.5,0.4-0.9c0-0.3-0.1-0.5-0.2-0.7c-0.1-0.2-0.4-0.3-0.8-0.3C39.7,255.4,39.5,255.5,39.2,255.7z"/>
	<path class="st16" d="M44.7,255.9c-0.2,0.2-0.3,0.4-0.3,0.7c0,0.4,0.1,0.7,0.3,0.8c0.2,0.1,0.4,0.2,0.5,0.3c0.3,0,0.6-0.1,0.9-0.3
		c0.3-0.2,0.4-0.5,0.4-0.9c0-0.3-0.1-0.5-0.2-0.7c-0.1-0.2-0.4-0.3-0.8-0.3C45.2,255.6,44.9,255.7,44.7,255.9z"/>
	<path class="st16" d="M58.9,245.5c0.3,0,0.6-0.1,0.9-0.3c0.3-0.2,0.4-0.5,0.4-0.9c0-0.3-0.1-0.5-0.2-0.7c-0.1-0.2-0.4-0.3-0.8-0.3
		c-0.3,0-0.6,0.1-0.8,0.3c-0.2,0.2-0.3,0.4-0.3,0.7c0,0.4,0.1,0.7,0.3,0.8C58.6,245.3,58.7,245.4,58.9,245.5z"/>
	<path class="st16" d="M76.4,247.4c0-0.3-0.1-0.9-0.3-1.7c-0.1-0.8-0.2-1.6-0.2-2.3c0-0.1,0-0.3,0-0.5c0-0.2,0-0.4,0-0.6
		c0-0.4-0.1-0.8-0.3-1.1c-0.2-0.3-0.5-0.5-0.7-0.5c-0.4,0-0.7,0.2-1.1,0.5c-0.4,0.3-0.5,0.8-0.5,1.2c0,0.5,0.2,1.1,0.6,1.7
		c0.4,0.7,0.6,1.1,0.7,1.4c0.1,0.3,0.2,0.7,0.3,1.2c0.1,0.5,0.2,1.1,0.2,1.8c0,0.6,0,1.2,0,1.8c0,0.7-0.1,1.2-0.1,1.8
		c-0.1-0.1-0.2-0.1-0.4-0.2s-0.3-0.2-0.5-0.2h-1h-0.7h-1.4h-0.6h-0.7c-0.1,0-0.4-0.4-0.8-1.1c-0.4-0.7-1-1.1-1.9-1.1
		c-0.6,0-1.1,0.2-1.4,0.7c-0.3,0.4-0.6,1-0.8,1.5h-1H63h-1.3c-0.3,0-0.6-0.1-0.7-0.2c-0.1-0.1-0.3-0.2-0.4-0.2
		c0.5,0,0.9-0.1,1.4-0.2c0.4-0.1,0.7-0.3,0.7-0.8c0-0.4-0.2-0.8-0.6-1.1c-0.4-0.2-0.7-0.4-1.1-0.6c-0.2-0.1-0.5-0.4-0.8-0.9
		c-0.3-0.4-0.7-0.6-1-0.6c-0.3,0-0.6,0.2-0.9,0.6c-0.3,0.4-0.6,0.7-0.9,0.9c-0.5,0.3-0.9,0.5-1.3,0.7c-0.3,0.2-0.5,0.5-0.5,1
		c0,0.4,0.3,0.7,0.9,0.8c0.4,0.1,0.8,0.1,1.2,0.1c-0.2,0.1-0.3,0.2-0.5,0.3c-0.1,0.1-0.3,0.1-0.6,0.2h-1.5h-0.5h-0.9
		c-0.2,0-0.5-0.2-0.8-0.5c-0.3-0.3-0.6-0.5-1.1-0.5c-0.4,0-0.7,0.1-0.9,0.3c-0.2,0.2-0.3,0.5-0.3,0.9c0,0.5,0.1,0.9,0.4,1.2
		c0.3,0.3,0.4,0.4,0.4,0.5c0,0.3-0.2,0.9-0.7,1.8c-0.5,0.9-0.8,1.5-0.9,1.7c-0.9,1-1.9,1.8-3.2,2.5c-1.3,0.6-2.4,1-3.3,1
		c-1.6,0-3.1-0.3-4.3-1c-1.2-0.7-2-1.3-2.4-1.9s-0.7-1.3-0.9-2c-0.2-0.7-0.3-1.3-0.5-1.9h0.1h0.7h1.1c0.2,0,0.4-0.1,0.5-0.3
		c0.1-0.2,0.3-0.5,0.5-0.8c0.2,0.2,0.3,0.4,0.6,0.7c0.2,0.3,0.4,0.5,0.5,0.5c0.1,0,0.2,0,0.3-0.1h1.5h0.5h0.6c0.9,0,1.4,0,1.7,0.1
		s0.5,0.2,0.7,0.2c0.3,0,0.6-0.2,0.8-0.7c0.2-0.5,0.3-1,0.3-1.7c0-0.9-0.2-1.6-0.6-2.2c-0.4-0.6-0.8-0.9-1.1-0.9
		c-0.4,0-0.8,0.1-1,0.4c-0.3,0.3-0.4,0.6-0.4,0.9c0,0.3,0.1,0.5,0.3,0.7c0.2,0.2,0.4,0.3,0.7,0.3c0.3,0,0.5,0,0.5,0.1
		s0.1,0.1,0.1,0.2c0,0.1,0.1,0.2,0.1,0.3c0,0.1,0,0.2,0,0.2c0,0.1,0,0.1-0.1,0.2c-0.6-0.2-0.9-0.2-1-0.2c-0.1,0-0.4,0-0.9,0h-0.8
		h-0.5H41c-0.6,0-1-0.3-1.4-0.9c-0.4-0.6-0.6-0.9-0.6-0.9c-0.4,0-0.6,0.3-0.8,0.9c-0.1,0.6-0.7,0.9-1.8,0.9h-0.2h-0.7h-1.2h-0.8
		h-1.2h-0.8h-1.2h-0.8h-1.3h-0.6h-0.6c-0.1-0.3-0.1-0.8-0.2-1.5c0-0.4,0-0.9,0-1.3c0-0.4,0-0.9,0-1.3c0-0.4,0-0.8,0-1.3
		c0-0.6-0.2-1.2-0.5-1.6c-0.3-0.4-0.7-0.6-1.2-0.6c-0.4,0-0.8,0.1-1,0.2c-0.3,0.1-0.4,0.5-0.4,1c0,0.2,0.2,0.4,0.5,0.6
		c0.3,0.2,0.5,0.4,0.6,0.6c0.1,0.2,0.1,0.4,0.2,0.6c0.1,0.3,0.1,0.5,0,0.6c-1,0.3-2,0.5-3,0.8c-0.8,0.5-1.3,1.3-1.3,2.4
		c0,1.2,0.3,1.9,0.8,2.2c0.5,0.3,1,0.5,1.6,0.6c0.1,0,0.2,0,0.3,0c0.1,0,0.4,0,0.9,0c0.1,0,0.2,0,0.3,0c0.1,0,0.2,0,0.3,0
		c-0.1,0.1-0.2,0.4-0.5,0.6c-0.3,0.3-0.4,0.5-0.5,0.7c0.9,0,1.5-0.2,1.9-0.6c0.4-0.4,0.9-0.6,1.6-0.6c0.2,0,0.4,0,0.6,0
		c0.2,0,0.3,0,0.3,0l-0.4,0h1.3h0.8h1.2h0.8h1.2h0.8h1c0,0,0,0.1,0,0.2v0.4c0,0.2,0.1,0.8,0.3,2c0.2,1.2,0.9,2.4,2.2,3.8
		s3.2,2,5.9,2c1.2,0,2.6-0.4,4.2-1.2s2.8-1.7,3.6-2.8c0.8-1.1,1.3-2.1,1.6-3c0.3-0.9,0.7-1.4,1.4-1.4h0.3h0.5h2.6
		c0.1,0,0.3-0.2,0.6-0.5c0.3-0.3,0.5-0.5,0.6-0.5c0.1,0,0.3,0.2,0.6,0.5c0.3,0.3,0.5,0.5,0.6,0.5h3.4v0c0.1,0,0.3,0,0.5,0
		c0.1,0,0.2,0,0.4,0s0.3,0,0.3,0c0.1,0,0.3,0.3,0.7,0.9c0.4,0.6,0.9,0.9,1.7,0.9c0.7,0,1.2-0.3,1.6-0.9c0.4-0.6,0.6-0.9,0.8-0.9h0.7
		h0.6h1.4h0.7h0.5c0.2,0,0.4,0.1,0.7,0.4c0.3,0.3,0.4,0.4,0.6,0.4c0.8,0,1.3-0.5,1.6-1.5c0.3-1,0.4-2,0.4-3c0-0.4,0-0.9-0.1-1.4
		C76.5,248.1,76.4,247.7,76.4,247.4z M24.8,251.7c-0.1,0-0.3,0-0.6,0c-0.3,0-0.6,0-0.8-0.1c-0.2-0.1-0.3-0.2-0.3-0.4
		c0-0.3,0-0.5,0.1-0.7c0.1-0.2,0.2-0.4,0.3-0.5c0.1-0.1,0.4-0.3,0.7-0.4c0.3-0.1,0.6-0.2,0.9-0.2c0.3,0,0.4,0.1,0.4,0.4l0.1,0.9
		l0,0.3C25.6,251.5,25.3,251.7,24.8,251.7z M60,250.3c-0.4,0.1-0.8,0.1-1,0.1c-0.4,0-0.8-0.1-1.1-0.1c-0.3-0.1-0.5-0.1-0.5-0.2
		c0-0.1,0.1-0.2,0.4-0.3c0.3-0.1,0.5-0.2,0.6-0.2c0.2,0,0.3-0.2,0.3-0.4c0.1-0.3,0.1-0.4,0.3-0.4c0.1,0,0.2,0.1,0.2,0.4
		c0.1,0.2,0.2,0.4,0.4,0.4c0.2,0,0.4,0.1,0.6,0.2c0.2,0.1,0.3,0.2,0.3,0.2C60.7,250.2,60.4,250.3,60,250.3z M67.5,253.3
		c-0.1,0.2-0.2,0.3-0.4,0.3c-0.4,0-0.6-0.3-0.7-0.8c0-0.1,0-0.2,0-0.3c0-0.3,0.1-0.5,0.2-0.7c0.1-0.2,0.2-0.3,0.4-0.3
		c0.2,0,0.4,0.1,0.5,0.3c0.1,0.2,0.2,0.4,0.2,0.7C67.6,252.8,67.6,253.1,67.5,253.3z"/>
	<path class="st16" d="M80,244c0-0.4,0.1-0.8,0.2-1.2c0.1-0.4,0.2-0.7,0.3-1c0-0.2,0-0.5-0.2-0.8c-0.1-0.3-0.4-0.5-0.7-0.5
		c-0.5,0-0.9,0.2-1.4,0.7c-0.4,0.5-0.6,1-0.6,1.6c0.2,0.2,0.3,0.4,0.5,0.6c0.2,0.2,0.3,0.5,0.3,0.8l0.3,3.8c0,0.3,0.1,0.7,0.1,1
		c0,0.4,0,0.7,0,0.9c0,0.3,0,0.5,0,0.8c0,0.3-0.1,0.6-0.2,1c-0.1,0.4-0.3,0.8-0.5,1.3c-0.2,0.4-0.6,1-1.2,1.7c1.1-0.3,2-1,2.6-2
		c0.7-1.1,1-1.9,1-2.4c0-0.7-0.1-1.7-0.3-3.1C80.1,246,80,244.9,80,244z"/>
	<path class="st16" d="M92.5,243.7c0.2-0.1,0.5-0.4,0.8-0.8c0.1,0.1,0.2,0.3,0.3,0.4c0.1,0.1,0.3,0.2,0.6,0.2c0.3,0,0.6-0.1,0.9-0.3
		c0.3-0.2,0.4-0.4,0.4-0.7c0-0.2-0.1-0.4-0.3-0.7c-0.2-0.3-0.4-0.4-0.7-0.4c-0.4,0-0.7,0.1-0.9,0.3c-0.2,0.2-0.4,0.5-0.5,0.9
		c-0.2-0.3-0.3-0.6-0.4-0.7c-0.1-0.1-0.4-0.2-0.7-0.2c-0.3,0-0.6,0.1-0.8,0.2c-0.2,0.1-0.3,0.4-0.3,0.8c0,0.3,0.1,0.6,0.3,0.8
		c0.2,0.2,0.4,0.3,0.7,0.3C92.1,243.8,92.3,243.8,92.5,243.7z"/>
	<path class="st16" d="M112.6,255.4c-0.3,0-0.6,0.1-0.8,0.3c-0.2,0.2-0.3,0.4-0.3,0.7c0,0.4,0.1,0.7,0.3,0.8
		c0.2,0.1,0.4,0.2,0.5,0.3c0.3,0,0.6-0.1,0.9-0.3c0.3-0.2,0.4-0.5,0.4-0.9c0-0.3-0.1-0.5-0.2-0.7C113.2,255.5,113,255.4,112.6,255.4
		z"/>
	<path class="st16" d="M109.9,255.5c-0.3,0-0.6,0.1-0.8,0.3c-0.2,0.2-0.3,0.4-0.3,0.7c0,0.3,0.1,0.5,0.3,0.8
		c0.2,0.2,0.4,0.4,0.6,0.4c0.4,0,0.6-0.1,0.8-0.4c0.2-0.2,0.3-0.5,0.3-0.8c0-0.3-0.1-0.6-0.2-0.7
		C110.5,255.5,110.3,255.5,109.9,255.5z"/>
	<path class="st16" d="M116.6,255.1c-0.3,0-0.6,0.1-0.8,0.3c-0.2,0.2-0.3,0.4-0.3,0.7c0,0.3,0.1,0.5,0.3,0.8
		c0.2,0.2,0.4,0.4,0.6,0.4c0.4,0,0.6-0.1,0.8-0.3c0.2-0.2,0.3-0.5,0.3-0.8c0-0.3-0.1-0.6-0.2-0.7
		C117.2,255.2,116.9,255.1,116.6,255.1z"/>
	<path class="st16" d="M135.6,247.3c-0.7,0-1.3,0.3-1.9,0.9c-0.6,0.6-0.9,1.6-0.9,2.9c0,0.8,0.1,1.5,0.3,1.9c0.2,0.4,0.5,0.7,1,0.8
		c0.5,0.1,0.7,0.1,0.8,0.1c0.1,0,0.4,0,0.8-0.2c0.4-0.1,0.7-0.1,0.8-0.1c0,1.4-0.6,2.6-1.7,3.7c-1.1,1-2.5,1.7-4,1.9
		c-0.3,0-0.6,0.1-0.9,0.1c-0.6,0-1.1-0.1-1.7-0.2c-0.6-0.2-1.3-0.5-2-1c-0.7-0.5-1.3-0.9-1.8-1.3c-0.3-0.3-0.7-0.8-1.1-1.4
		c0.1,0,0.1,0,0.2,0c0.7,0,1.2-0.3,1.6-0.9c0.4-0.6,0.6-0.9,0.8-0.9h0.7h0.5h0.7c0.2,0,0.4,0.1,0.7,0.4c0.3,0.3,0.4,0.4,0.6,0.4
		c0.8,0,1.3-0.5,1.6-1.5c0.3-1,0.4-2,0.4-3c0-0.4,0-0.9-0.1-1.4c-0.1-0.5-0.1-0.9-0.2-1.2c0-0.3-0.1-0.9-0.3-1.7
		c-0.1-0.8-0.2-1.6-0.2-2.3c0-0.1,0-0.3,0-0.5c0-0.2,0-0.4,0-0.6c0-0.4-0.1-0.8-0.3-1.1c-0.2-0.3-0.5-0.5-0.7-0.5
		c-0.4,0-0.7,0.2-1.1,0.5c-0.4,0.3-0.5,0.8-0.5,1.2c0,0.5,0.2,1.1,0.6,1.7c0.4,0.7,0.6,1.1,0.7,1.4c0.1,0.3,0.2,0.7,0.3,1.2
		c0.1,0.5,0.2,1.1,0.2,1.8c0,0.6,0,1.2,0,1.8c0,0.7-0.1,1.2-0.1,1.8c-0.1-0.1-0.2-0.1-0.4-0.2s-0.3-0.2-0.5-0.2h-1.2h-0.5h-0.7
		c-0.1,0-0.4-0.4-0.8-1.1c-0.4-0.7-1-1.1-1.9-1.1c-0.6,0-1.1,0.2-1.4,0.7c-0.3,0.4-0.6,1-0.8,1.5h-1.1h-0.6h-0.1
		c-0.6,0-1-0.3-1.4-0.9c-0.4-0.6-0.6-0.9-0.6-0.9c-0.4,0-0.6,0.3-0.8,0.9c-0.1,0.6-0.7,0.9-1.8,0.9h-0.5h-0.5h-0.1
		c-0.6,0-1-0.3-1.4-0.9c-0.4-0.6-0.6-0.9-0.6-0.9c-0.4,0-0.6,0.3-0.8,0.9c-0.1,0.6-0.7,0.9-1.8,0.9h-0.2H108h-1.2H106h-1.2h-0.8H103
		h-0.8H101h-0.8h-1.3h-0.6h-0.6c-0.1-0.3-0.1-0.8-0.2-1.5c0-0.4,0-0.9,0-1.3c0-0.4,0-0.9,0-1.3c0-0.4,0-0.8,0-1.3
		c0-0.6-0.2-1.2-0.5-1.6c-0.3-0.4-0.7-0.6-1.2-0.6c-0.4,0-0.8,0.1-1,0.2c-0.3,0.1-0.4,0.5-0.4,1c0,0.2,0.2,0.4,0.5,0.6
		c0.3,0.2,0.5,0.4,0.6,0.6c0.1,0.2,0.1,0.4,0.2,0.6c0.1,0.3,0.1,0.5,0,0.6c-1,0.3-2,0.5-3,0.8c-0.8,0.5-1.3,1.3-1.3,2.4
		c0,1.2,0.3,1.9,0.8,2.2c0.5,0.3,1,0.5,1.6,0.6c0.1,0,0.2,0,0.3,0c0.1,0,0.4,0,0.9,0c0.1,0,0.2,0,0.3,0c0.1,0,0.2,0,0.3,0
		c-0.1,0.1-0.2,0.4-0.5,0.6c-0.3,0.3-0.4,0.5-0.5,0.7c0.9,0,1.5-0.2,1.9-0.6c0.4-0.4,0.9-0.6,1.6-0.6c0.2,0,0.4,0,0.6,0
		c0.2,0,0.3,0,0.3,0l-0.4,0h1.3h0.8h1.2h0.8h1.2h0.8h1.2h0.8h1.2h0.7h1.1c0.2,0,0.4-0.1,0.5-0.3c0.1-0.2,0.3-0.5,0.5-0.8
		c0.2,0.2,0.3,0.4,0.6,0.7c0.2,0.3,0.4,0.5,0.5,0.5c0.1,0,0.2,0,0.3-0.1h1.5h0.5h1.3c0.2,0,0.4-0.1,0.5-0.3c0.1-0.2,0.3-0.5,0.5-0.8
		c0.2,0.2,0.3,0.4,0.6,0.7c0.2,0.3,0.4,0.5,0.5,0.5c0.1,0,0.2,0,0.3-0.1h2v0c0.2,0,0.3,0,0.5,0c0.1,0,0.2,0,0.4,0s0.3,0,0.3,0
		c0.1,0,0.3,0.3,0.7,0.9c0.2,0.4,0.6,0.6,1,0.7c0,0.1,0,0.2,0.1,0.3c0.1,0.4,0.4,0.9,0.9,1.4s1.1,1.2,1.8,1.9
		c0.8,0.7,1.7,1.2,2.6,1.5c1,0.2,1.8,0.3,2.5,0.3c2,0,3.8-0.8,5.5-2.4c1.6-1.6,2.4-3.5,2.4-5.8c0-1.4-0.3-2.6-0.8-3.7
		C137.3,247.8,136.5,247.3,135.6,247.3z M136.3,251.7c-0.1,0.1-0.4,0.2-0.8,0.3c-0.2,0-0.4-0.1-0.6-0.3c-0.2-0.3-0.3-0.5-0.3-0.7
		c0-0.1,0.1-0.4,0.1-0.9c0.1-0.4,0.3-0.6,0.6-0.6c0.3,0,0.6,0.1,0.8,0.5c0.2,0.4,0.3,0.7,0.3,0.9c0,0.1,0,0.2,0,0.3
		C136.5,251.4,136.4,251.5,136.3,251.7z M95.4,251.7c-0.1,0-0.3,0-0.6,0c-0.3,0-0.6,0-0.8-0.1c-0.2-0.1-0.3-0.2-0.3-0.4
		c0-0.3,0-0.5,0.1-0.7c0.1-0.2,0.2-0.4,0.3-0.5s0.4-0.3,0.7-0.4c0.3-0.1,0.6-0.2,0.9-0.2c0.3,0,0.4,0.1,0.4,0.4l0.1,0.9l0,0.3
		C96.2,251.5,95.9,251.7,95.4,251.7z M122.8,251.7c0.1-0.2,0.2-0.3,0.4-0.3c0.2,0,0.4,0.1,0.5,0.3c0.1,0.2,0.2,0.4,0.2,0.7
		c0,0.3,0,0.6-0.1,0.8c-0.1,0.2-0.2,0.3-0.4,0.3c-0.4,0-0.6-0.3-0.7-0.8c0-0.1,0-0.2,0-0.3C122.7,252.1,122.7,251.9,122.8,251.7z"/>
	<path class="st16" d="M152,239.7c-0.2,0-0.4,0.1-0.7,0.2l0,0c-0.2,0.2-0.4,0.5-0.6,0.8c-0.2,0.3-0.3,0.6-0.3,0.9
		c0,0.4,0.2,0.6,0.6,0.7c0.1,0,0.2,0.1,0.3,0.1s0.2,0,0.2,0c0.1,0.4,0.2,0.8,0.3,1.2c0,0.4,0.1,0.9,0.1,1.5c0,0.2,0,0.6,0,1.1
		s0,0.9,0,1.1c0,0.5-0.1,1.2-0.2,1.8c-0.1,0.7-0.3,1.2-0.4,1.8v-1.5c0-2.2-0.6-4.1-1.9-5.7c-1.3-1.7-3-2.5-5-2.5
		c-0.7,0-1.3,0.3-2,0.9c-0.7,0.6-1.1,1.3-1.4,2c-0.2,0.7-0.4,1.3-0.4,1.8c0,0,0.1,0,0.1,0.1c0.5-1.1,1-1.8,1.3-2.3
		c0.4-0.5,0.8-0.8,1.3-0.8c0.5-0.1,0.8-0.1,0.9-0.1c0.1,0,0.2,0,0.3,0c1.7,0,3.1,0.8,4.2,2.4c1.1,1.6,1.7,3.4,1.7,5.4v0.8
		c0,0.3-0.2,0.5-0.6,0.7c-0.4,0.1-0.9,0.3-1.6,0.4c-0.7,0.1-1.3,0.2-1.8,0.2c-1.2,0-2.2-0.3-3.1-0.8s-1.7-1.3-2.3-2.4
		c0-0.1-0.1-0.3-0.2-0.7c-0.1-0.1-0.2-0.3-0.2-0.4c0,0.1,0,0.2,0,0.4c0,0.5,0.1,1,0.3,1.5c0.2,0.5,0.3,0.9,0.5,1.1
		c1,1.2,1.8,2,2.6,2.2c0.8,0.3,1.9,0.4,3.3,0.4l0.6,0c0,0.2,0,0.5,0.1,0.8c0.1,0.3,0.3,0.4,0.4,0.6c0.2,0.1,0.4,0.2,0.6,0.2
		c0.5,0,1-0.2,1.5-0.5c0.3-0.2,0.5-0.5,0.6-0.9c0.1-0.4,0.2-0.8,0.2-1.3c0.3-0.2,0.6-0.6,1-1.2s0.6-1.5,0.8-2.7
		c0.2-1.2,0.3-2.7,0.3-4.4l0.1-2c0-0.8-0.1-1.5-0.3-2.1C152.7,239.9,152.4,239.7,152,239.7z"/>
	<path class="st16" d="M141.2,241.1c0.3-0.2,0.6-0.4,0.9-0.6c0.3-0.2,0.5-0.3,0.8-0.4c0.3-0.1,0.5-0.2,0.8-0.2
		c0.3,0,0.4-0.2,0.4-0.4c0-0.3-0.1-0.4-0.4-0.4c-0.1,0-0.3,0-0.8,0.1s-0.6,0.1-0.7,0.1c-0.1,0-0.3,0-0.4-0.1
		c-0.1-0.1-0.2-0.2-0.3-0.3c-0.1-0.2,0-0.4,0.3-0.5c0.1-0.1,0.1-0.1,0.2-0.1c0,0,0.1,0,0.3,0.1c0.1,0,0.2,0.1,0.3,0.1
		c0.3,0,0.4-0.2,0.4-0.5c0-0.1-0.1-0.3-0.3-0.4c-0.2-0.1-0.5-0.2-0.7-0.2c-0.1,0-0.3,0-0.5,0.1c-0.2,0.1-0.4,0.2-0.6,0.5
		c-0.2,0.3-0.3,0.5-0.3,0.9c0,0.1,0,0.2,0.1,0.5c0.1,0.2,0.2,0.5,0.5,0.6c-0.2,0.1-0.3,0.2-0.5,0.4c-0.2,0.2-0.3,0.4-0.4,0.5
		c-0.1,0.3,0,0.4,0.4,0.5C140.7,241.4,140.8,241.3,141.2,241.1z"/>
	<path class="st16" d="M156.8,244c0-0.4,0.1-0.8,0.2-1.2c0.1-0.4,0.2-0.7,0.3-1c0-0.2,0-0.5-0.2-0.8c-0.1-0.3-0.4-0.5-0.7-0.5
		c-0.5,0-0.9,0.2-1.4,0.7c-0.4,0.5-0.6,1-0.6,1.6c0.2,0.2,0.3,0.4,0.5,0.6c0.2,0.2,0.3,0.5,0.3,0.8l0.3,3.8c0,0.3,0.1,0.7,0.1,1
		c0,0.4,0,0.7,0,0.9c0,0.3,0,0.5,0,0.8c0,0.3-0.1,0.6-0.2,1c-0.1,0.4-0.3,0.8-0.5,1.3c-0.2,0.4-0.6,1-1.2,1.7c1.1-0.3,2-1,2.6-2
		s1-1.9,1-2.4c0-0.7-0.1-1.7-0.3-3.1C156.9,246,156.8,244.9,156.8,244z"/>
	<path class="st16" d="M169.3,243.7c0.2-0.1,0.5-0.4,0.8-0.8c0.1,0.1,0.2,0.3,0.3,0.4c0.1,0.1,0.3,0.2,0.6,0.2
		c0.3,0,0.6-0.1,0.9-0.3c0.3-0.2,0.4-0.4,0.4-0.7c0-0.2-0.1-0.4-0.3-0.7c-0.2-0.3-0.4-0.4-0.7-0.4c-0.4,0-0.7,0.1-0.9,0.3
		c-0.2,0.2-0.4,0.5-0.5,0.9c-0.2-0.3-0.3-0.6-0.4-0.7c-0.1-0.1-0.4-0.2-0.7-0.2c-0.3,0-0.6,0.1-0.8,0.2c-0.2,0.1-0.3,0.4-0.3,0.8
		c0,0.3,0.1,0.6,0.3,0.8c0.2,0.2,0.4,0.3,0.7,0.3C168.9,243.8,169.1,243.8,169.3,243.7z"/>
	<path class="st16" d="M177.2,247.6c0.3,0,0.6-0.1,0.8-0.4c0.2-0.2,0.3-0.5,0.3-0.8c0-0.7-0.3-1-1-1c-0.3,0-0.6,0.1-0.8,0.3
		c-0.2,0.2-0.3,0.4-0.3,0.7c0,0.3,0.1,0.5,0.3,0.8C176.8,247.4,177,247.6,177.2,247.6z"/>
	<path class="st16" d="M182.7,255.5c-0.3,0-0.6,0.1-0.8,0.3c-0.2,0.2-0.3,0.4-0.3,0.7c0,0.3,0.1,0.5,0.3,0.8
		c0.2,0.2,0.4,0.4,0.6,0.4c0.4,0,0.6-0.1,0.8-0.4c0.2-0.2,0.3-0.5,0.3-0.8c0-0.3-0.1-0.6-0.2-0.7
		C183.3,255.5,183.1,255.5,182.7,255.5z"/>
	<path class="st16" d="M185.4,255.4c-0.3,0-0.6,0.1-0.8,0.3c-0.2,0.2-0.3,0.4-0.3,0.7c0,0.4,0.1,0.7,0.3,0.8
		c0.2,0.1,0.4,0.2,0.5,0.3c0.3,0,0.6-0.1,0.9-0.3c0.3-0.2,0.4-0.5,0.4-0.9c0-0.3-0.1-0.5-0.2-0.7
		C186.1,255.5,185.8,255.4,185.4,255.4z"/>
	<path class="st16" d="M188.5,247.6c0.3,0,0.6-0.1,0.8-0.4c0.2-0.2,0.3-0.5,0.3-0.8c0-0.7-0.3-1-1-1c-0.3,0-0.6,0.1-0.8,0.3
		c-0.2,0.2-0.3,0.4-0.3,0.7c0,0.3,0.1,0.5,0.3,0.8C188.1,247.4,188.3,247.6,188.5,247.6z"/>
	<path class="st16" d="M204.8,253.6c0.3,0.2,0.5,0.2,0.6,0.2c0.2,0,0.4-0.1,0.5-0.4c0.1-0.3,0.2-0.7,0.2-1.2c0-1.1-0.4-2.2-1.1-3.1
		c-0.7-0.9-1.6-1.5-2.7-1.8c0.2-0.7,0.3-1.2,0.4-1.6c0.1-0.4,0.4-0.9,0.6-1.7c0.3-0.8,0.5-1.3,0.7-1.6c0.2-0.3,0.4-0.6,0.6-0.8
		c0.1-0.1,0.1-0.2,0.1-0.3c0-0.1,0-0.2,0-0.3c0-0.2,0-0.4-0.1-0.5c-0.1-0.2-0.2-0.3-0.4-0.3s-0.3-0.1-0.5-0.1
		c-0.4,0-0.9,0.2-1.3,0.5c-0.4,0.3-0.7,0.7-0.8,1.2c0,0.1,0,0.3,0.1,0.5c0.1,0.2,0.2,0.5,0.2,0.7c0,0.1,0,0.3-0.1,0.5
		c0,0.2-0.1,0.6-0.3,1c-0.1,0.5-0.5,1.4-0.9,2.7c-1.5,0-2.7,0.3-3.7,1s-2.1,1.8-3.2,3.4h-1h-0.6h0c-0.6,0-1-0.3-1.4-0.9
		c-0.4-0.6-0.6-0.9-0.6-0.9c-0.4,0-0.6,0.3-0.8,0.9c-0.1,0.6-0.7,0.9-1.8,0.9h-0.5h-0.5h-0.1c-0.6,0-1-0.3-1.4-0.9
		c-0.4-0.6-0.6-0.9-0.6-0.9c-0.4,0-0.6,0.3-0.8,0.9c-0.1,0.6-0.7,0.9-1.8,0.9h-0.4h-0.6h-0.1c-0.6,0-1-0.3-1.4-0.9
		c-0.4-0.6-0.6-0.9-0.6-0.9c-0.4,0-0.6,0.3-0.8,0.9c-0.1,0.6-0.7,0.9-1.8,0.9h-0.4h-0.6h-0.6c-0.1-0.3-0.1-0.8-0.2-1.5
		c0-0.4,0-0.9,0-1.3c0-0.4,0-0.9,0-1.3c0-0.4,0-0.8,0-1.3c0-0.6-0.2-1.2-0.5-1.6c-0.3-0.4-0.7-0.6-1.2-0.6c-0.4,0-0.8,0.1-1,0.2
		c-0.3,0.1-0.4,0.5-0.4,1c0,0.2,0.2,0.4,0.5,0.6c0.3,0.2,0.5,0.4,0.6,0.6c0.1,0.2,0.1,0.4,0.2,0.6c0.1,0.3,0.1,0.5,0,0.6
		c-1,0.3-2,0.5-3,0.8c-0.8,0.5-1.3,1.3-1.3,2.4c0,1.2,0.3,1.9,0.8,2.2c0.5,0.3,1,0.5,1.6,0.6c0.1,0,0.2,0,0.3,0c0.1,0,0.4,0,0.9,0
		c0.1,0,0.2,0,0.3,0c0.1,0,0.2,0,0.3,0c-0.1,0.1-0.2,0.4-0.5,0.6c-0.3,0.3-0.4,0.5-0.5,0.7c0.9,0,1.5-0.2,1.9-0.6
		c0.4-0.4,0.9-0.6,1.6-0.6c0.2,0,0.4,0,0.6,0c0.2,0,0.3,0,0.3,0l-0.4,0h1.3c0.2,0,0.4-0.1,0.5-0.3c0.1-0.2,0.3-0.5,0.5-0.8
		c0.2,0.2,0.3,0.4,0.6,0.7c0.2,0.3,0.4,0.5,0.5,0.5c0.1,0,0.2,0,0.3-0.1h1.4h0.6h1.3c0.2,0,0.4-0.1,0.5-0.3c0.1-0.2,0.3-0.5,0.5-0.8
		c0.2,0.2,0.3,0.4,0.6,0.7c0.2,0.3,0.4,0.5,0.5,0.5c0.1,0,0.2,0,0.3-0.1h1.5h0.5h1.3c0.2,0,0.4-0.1,0.5-0.3c0.1-0.2,0.3-0.5,0.5-0.8
		c0.2,0.2,0.3,0.4,0.6,0.7c0.2,0.3,0.4,0.5,0.5,0.5c0.1,0,0.2,0,0.3-0.1h2v-0.1c0.1,0,0.1,0,0.1,0.1c0,0.1,0.1,0.3,0.1,0.5
		c0,0.3,0.2,0.4,0.6,0.4c0.1,0,0.2,0,0.3,0c0.1,0,0.3-0.1,0.4-0.2c0.2-0.1,0.3-0.3,0.3-0.5c0.1-0.2,0.1-0.3,0.2-0.3
		c0.1,0,0.2,0,0.4,0c0.6,0,1.4,0.1,2.3,0.2c1,0.1,2,0.2,3,0.2c0.7,0,1.3-0.1,1.9-0.2c0.6-0.1,1.1-0.2,1.4-0.2
		C204.2,253.4,204.5,253.5,204.8,253.6z M172.2,251.7c-0.1,0-0.3,0-0.6,0c-0.3,0-0.6,0-0.8-0.1c-0.2-0.1-0.3-0.2-0.3-0.4
		c0-0.3,0-0.5,0.1-0.7c0.1-0.2,0.2-0.4,0.3-0.5s0.4-0.3,0.7-0.4c0.3-0.1,0.6-0.2,0.9-0.2c0.3,0,0.4,0.1,0.4,0.4l0.1,0.9l0,0.3
		C173.1,251.5,172.8,251.7,172.2,251.7z M201.4,251.8c-1,0.1-1.9,0.1-2.7,0.1c-0.8,0-1.4,0-1.7-0.1c-0.3,0-0.6-0.1-1-0.2
		c0.5-0.7,1.1-1.3,1.8-1.8c0.7-0.5,1.4-0.7,2.1-0.7c-0.4,0.6-0.8,1-1.2,1.3c-0.4,0.3-1.1,0.7-1.9,1.1c1,0,1.9-0.2,2.7-0.7
		c0.7-0.5,1.3-1,1.8-1.6c0.6,0,1.1,0.2,1.6,0.6c0.5,0.4,0.8,0.9,1,1.4C203.3,251.6,202.5,251.7,201.4,251.8z"/>
	<path class="st16" d="M222.8,247.4c0-0.3-0.1-0.9-0.3-1.7c-0.1-0.8-0.2-1.6-0.2-2.3c0-0.1,0-0.3,0-0.5c0-0.2,0-0.4,0-0.6
		c0-0.4-0.1-0.8-0.3-1.1c-0.2-0.3-0.5-0.5-0.7-0.5c-0.4,0-0.7,0.2-1.1,0.5c-0.4,0.3-0.5,0.8-0.5,1.2c0,0.5,0.2,1.1,0.6,1.7
		c0.4,0.7,0.6,1.1,0.7,1.4c0.1,0.3,0.2,0.7,0.3,1.2c0.1,0.5,0.2,1.1,0.2,1.8c0,0.6,0,1.2,0,1.8c0,0.7-0.1,1.2-0.1,1.8
		c-0.1-0.1-0.2-0.1-0.4-0.2s-0.3-0.2-0.5-0.2h-1h-0.7h-1.2h-0.8h-1.3h-0.6h-0.4c0-0.1-0.2-0.7-0.5-2c-0.5-1.3-1.1-1.9-2.1-1.9
		c-0.7,0-1.2,0.4-1.6,1.3c-0.4,0.9-0.6,1.6-0.6,2.1c0,0.7,0.2,1.3,0.7,1.7c0.4,0.4,1.2,0.6,2.2,0.6c0,1-0.5,2.1-1.4,3.2
		c-0.9,1.1-1.9,1.6-2.9,1.6c-0.2,0-0.5,0-0.9,0c-0.4,0-0.9-0.1-1.5-0.2c-0.6-0.1-1.2-0.8-1.7-1.9c-0.3-0.8-0.5-1.4-0.6-1.8
		c-0.2-0.4-0.3-0.7-0.5-0.7l-0.1,0.6c0.2,1.4,0.4,2.3,0.6,2.9c0.3,0.5,0.6,1,1,1.4c0.4,0.4,0.8,0.7,1.1,0.8c0.3,0.1,0.8,0.2,1.3,0.2
		c1.3,0,2.5-0.3,3.3-0.8c0.9-0.5,1.6-1.2,2.2-2c0.6-0.8,1.2-1.9,1.8-3.3h0.4h0.6h1.3h0.8h1.2h0.7h0.5c0.2,0,0.4,0.1,0.7,0.4
		c0.3,0.3,0.4,0.4,0.6,0.4c0.8,0,1.3-0.5,1.6-1.5c0.3-1,0.4-2,0.4-3c0-0.4,0-0.9-0.1-1.4C222.9,248.1,222.8,247.7,222.8,247.4z
		 M212.4,251.8c-0.1,0-0.2,0-0.3,0c-0.3,0-0.5-0.1-0.7-0.3s-0.3-0.3-0.3-0.5c0-0.2,0.1-0.3,0.2-0.4c0.1-0.1,0.2-0.1,0.3-0.1
		c0.2,0,0.3,0.1,0.5,0.2c0.2,0.1,0.3,0.4,0.3,0.8C212.6,251.6,212.5,251.7,212.4,251.8z"/>
	<path class="st16" d="M226.4,244c0-0.4,0.1-0.8,0.2-1.2c0.1-0.4,0.2-0.7,0.3-1c0-0.2,0-0.5-0.2-0.8c-0.1-0.3-0.4-0.5-0.7-0.5
		c-0.5,0-0.9,0.2-1.4,0.7c-0.4,0.5-0.6,1-0.6,1.6c0.2,0.2,0.3,0.4,0.5,0.6c0.2,0.2,0.3,0.5,0.3,0.8l0.3,3.8c0,0.3,0.1,0.7,0.1,1
		c0,0.4,0,0.7,0,0.9c0,0.3,0,0.5,0,0.8c0,0.3-0.1,0.6-0.2,1c-0.1,0.4-0.3,0.8-0.5,1.3c-0.2,0.4-0.6,1-1.2,1.7c1.1-0.3,2-1,2.6-2
		c0.7-1.1,1-1.9,1-2.4c0-0.7-0.1-1.7-0.3-3.1C226.5,246,226.4,244.9,226.4,244z"/>
	<path class="st16" d="M237.7,243.7c0.2-0.1,0.5-0.4,0.8-0.8c0.1,0.1,0.2,0.3,0.3,0.4c0.1,0.1,0.3,0.2,0.6,0.2
		c0.3,0,0.6-0.1,0.9-0.3c0.3-0.2,0.4-0.4,0.4-0.7c0-0.2-0.1-0.4-0.3-0.7c-0.2-0.3-0.4-0.4-0.7-0.4c-0.4,0-0.7,0.1-0.9,0.3
		c-0.2,0.2-0.4,0.5-0.5,0.9c-0.2-0.3-0.3-0.6-0.4-0.7c-0.1-0.1-0.4-0.2-0.7-0.2c-0.3,0-0.6,0.1-0.8,0.2c-0.2,0.1-0.3,0.4-0.3,0.8
		c0,0.3,0.1,0.6,0.3,0.8c0.2,0.2,0.4,0.3,0.7,0.3C237.3,243.8,237.5,243.8,237.7,243.7z"/>
	<path class="st16" d="M253.3,247.6c0.3,0,0.6-0.1,0.8-0.4c0.2-0.2,0.3-0.5,0.3-0.8c0-0.7-0.3-1-1-1c-0.3,0-0.6,0.1-0.8,0.3
		c-0.2,0.2-0.3,0.4-0.3,0.7c0,0.3,0.1,0.5,0.3,0.8C252.9,247.4,253.1,247.6,253.3,247.6z"/>
	<path class="st16" d="M262.6,255.2c-0.3,0-0.6,0.1-0.8,0.3c-0.2,0.2-0.3,0.4-0.3,0.7c0,0.4,0.1,0.7,0.3,0.8
		c0.2,0.1,0.4,0.2,0.5,0.3c0.3,0,0.6-0.1,0.9-0.3c0.3-0.2,0.4-0.5,0.4-0.9c0-0.3-0.1-0.5-0.2-0.7C263.3,255.3,263,255.2,262.6,255.2
		z"/>
	<path class="st16" d="M278.8,247.4c0-0.3-0.1-0.9-0.3-1.7c-0.1-0.8-0.2-1.6-0.2-2.3c0-0.1,0-0.3,0-0.5c0-0.2,0-0.4,0-0.6
		c0-0.4-0.1-0.8-0.3-1.1c-0.2-0.3-0.5-0.5-0.7-0.5c-0.4,0-0.7,0.2-1.1,0.5c-0.4,0.3-0.5,0.8-0.5,1.2c0,0.5,0.2,1.1,0.6,1.7
		c0.4,0.7,0.6,1.1,0.7,1.4c0.1,0.3,0.2,0.7,0.3,1.2c0.1,0.5,0.2,1.1,0.2,1.8c0,0.6,0,1.2,0,1.8c0,0.7-0.1,1.2-0.1,1.8
		c-0.1-0.1-0.2-0.1-0.4-0.2c-0.2-0.1-0.3-0.2-0.5-0.2h-1.2c-0.1,0-0.2,0-0.2,0c0,0-0.2,0-0.4,0c0,0,0,0,0,0c-0.2,0-0.3,0-0.5,0
		c-0.2,0-0.2,0-0.3,0c-0.1-0.1-0.1-0.7-0.2-1.8c-0.1-1.1-0.1-2-0.2-2.5c-0.1-0.6-0.2-1.3-0.4-2.1c-0.2-0.8-0.3-1.6-0.3-2.2
		c0-0.1,0-0.2,0-0.5s0-0.5,0-0.6c0-0.4-0.1-0.8-0.3-1.1c-0.2-0.3-0.5-0.5-0.7-0.5c-0.4,0-0.8,0.2-1.1,0.5c-0.4,0.3-0.5,0.8-0.5,1.2
		c0,0.6,0.2,1.2,0.6,1.7c0.4,0.5,0.6,1,0.7,1.5c0.1,0.5,0.2,1.3,0.3,2.4c0.1,1.2,0.3,2.3,0.4,3.6c0,0.2-0.1,0.3-0.3,0.4
		c-0.2,0.1-0.4,0.2-0.6,0.2H270h-0.7h-1.4c-0.6,0-1.2-0.1-1.9-0.2c-0.7-0.1-1.2-0.3-1.6-0.7c-0.4-0.3-1-1-1.8-2.1
		c-0.8-1.1-1.7-1.6-2.8-1.6c-0.6,0-1.1,0.1-1.5,0.4c-0.4,0.3-0.6,0.7-0.6,1.2c0,0.4,0.1,0.7,0.2,1c0.1,0.3,0.5,0.4,1,0.4
		c0.2,0,0.5-0.1,0.7-0.3c0.2-0.2,0.4-0.3,0.5-0.4c0.4,0.2,0.9,0.4,1.3,0.6c0.6,0.3,0.8,0.8,0.8,1.5c-0.7,0.1-1.4,0.1-2.1,0.2
		c-0.7,0-1.5,0.1-2.3,0.1l-0.2,0v0h-0.6c-0.6,0-1-0.3-1.4-0.9c-0.4-0.6-0.6-0.9-0.6-0.9c-0.4,0-0.6,0.3-0.8,0.9
		c-0.1,0.6-0.7,0.9-1.8,0.9h-0.2h-0.7h-1.2h-0.8h-1.2h-0.8h-1.2h-0.8h-1.3h-0.6H243c-0.1-0.3-0.1-0.8-0.2-1.5c0-0.4,0-0.9,0-1.3
		c0-0.4,0-0.9,0-1.3c0-0.4,0-0.8,0-1.3c0-0.6-0.2-1.2-0.5-1.6c-0.3-0.4-0.7-0.6-1.2-0.6c-0.4,0-0.8,0.1-1,0.2
		c-0.3,0.1-0.4,0.5-0.4,1c0,0.2,0.2,0.4,0.5,0.6c0.3,0.2,0.5,0.4,0.6,0.6c0.1,0.2,0.1,0.4,0.2,0.6c0.1,0.3,0.1,0.5,0,0.6
		c-1,0.3-2,0.5-3,0.8c-0.8,0.5-1.3,1.3-1.3,2.4c0,1.2,0.3,1.9,0.8,2.2c0.5,0.3,1,0.5,1.6,0.6c0.1,0,0.2,0,0.3,0c0.1,0,0.4,0,0.9,0
		c0.1,0,0.2,0,0.3,0c0.1,0,0.2,0,0.3,0c-0.1,0.1-0.2,0.4-0.5,0.6c-0.3,0.3-0.4,0.5-0.5,0.7c0.9,0,1.5-0.2,1.9-0.6
		c0.4-0.4,0.9-0.6,1.6-0.6c0.2,0,0.4,0,0.6,0c0.2,0,0.3,0,0.3,0l-0.4,0h1.3h0.8h1.2h0.8h1.2h0.8h1.2h0.7h1.1c0.2,0,0.4-0.1,0.5-0.3
		c0.1-0.2,0.3-0.5,0.5-0.8c0.2,0.2,0.3,0.4,0.6,0.7c0.2,0.3,0.4,0.5,0.5,0.5c0.1,0,0.2,0,0.3-0.1h2v0l0.1,0c0.7,0,1.4,0,2.2-0.1
		c0.8-0.1,2.1-0.1,4-0.1c0.6,0,1.3,0,2.1,0.1c0.7,0.1,1.2,0.1,1.3,0.1h0.1h0.6h1.4h0.7h2.1c-0.1,0.4-0.2,0.8-0.3,1.3
		c-0.2,0.4-0.2,0.8-0.2,1c0.4-0.2,0.8-0.5,1.2-1c0.4-0.5,0.6-0.9,0.7-1.4h1.2h0.6h0.7c0.2,0,0.4,0.1,0.7,0.4
		c0.3,0.3,0.4,0.4,0.6,0.4c0.8,0,1.3-0.5,1.6-1.5c0.3-1,0.4-2,0.4-3c0-0.4,0-0.9-0.1-1.4C278.9,248.1,278.9,247.7,278.8,247.4z
		 M240.6,251.7c-0.1,0-0.3,0-0.6,0c-0.3,0-0.6,0-0.8-0.1c-0.2-0.1-0.3-0.2-0.3-0.4c0-0.3,0-0.5,0.1-0.7c0.1-0.2,0.2-0.4,0.3-0.5
		s0.4-0.3,0.7-0.4c0.3-0.1,0.6-0.2,0.9-0.2c0.3,0,0.4,0.1,0.4,0.4l0.1,0.9l0,0.3C241.5,251.5,241.2,251.7,240.6,251.7z"/>
	<path class="st16" d="M282.7,247.4c-0.2-1.4-0.3-2.5-0.3-3.3c0-0.4,0.1-0.8,0.2-1.2c0.1-0.4,0.2-0.7,0.3-1c0-0.2,0-0.5-0.2-0.8
		c-0.1-0.3-0.4-0.5-0.7-0.5c-0.5,0-0.9,0.2-1.4,0.7c-0.4,0.5-0.6,1-0.6,1.6c0.2,0.2,0.3,0.4,0.5,0.6c0.2,0.2,0.3,0.5,0.3,0.8
		l0.3,3.8c0,0.3,0.1,0.7,0.1,1c0,0.4,0,0.7,0,0.9c0,0.3,0,0.5,0,0.8c0,0.3-0.1,0.6-0.2,1c-0.1,0.4-0.3,0.8-0.5,1.3
		c-0.2,0.4-0.6,1-1.2,1.7c1.1-0.3,2-1,2.6-2c0.7-1.1,1-1.9,1-2.4C283,249.7,282.9,248.7,282.7,247.4z"/>
</g>
<g>
	<polygon class="st0" points="22.8,262.9 20,262.9 20,266.1 17.9,266.1 17.9,268.8 20,268.8 20,272.8 22.8,272.8 22.8,268.8 
		24.2,268.8 24.2,266.1 22.8,266.1 	"/>
	<polygon class="st0" points="64.5,262.9 61.7,262.9 61.7,266.1 59.5,266.1 59.5,268.8 61.7,268.8 61.7,272.8 64.5,272.8 
		64.5,268.8 65.8,268.8 65.8,266.1 64.5,266.1 	"/>
	<polygon class="st0" points="128.5,262.9 125.7,262.9 125.7,266.1 123.5,266.1 123.5,268.8 125.7,268.8 125.7,272.8 128.5,272.8 
		128.5,268.8 129.9,268.8 129.9,266.1 128.5,266.1 	"/>
	<polygon class="st0" points="77.9,262.9 75.2,262.9 75.2,266.1 73,266.1 73,268.8 75.2,268.8 75.2,272.8 77.9,272.8 77.9,268.8 
		79.3,268.8 79.3,266.1 77.9,266.1 	"/>
	<rect x="139.4" y="262.9" class="st0" width="2.8" height="9.8"/>
	<rect x="200.5" y="262.9" class="st0" width="2.8" height="9.8"/>
	<polygon class="st0" points="216.7,262.9 213.9,262.9 213.9,266.1 211.8,266.1 211.8,268.8 213.9,268.8 213.9,272.8 216.7,272.8 
		216.7,268.8 218.1,268.8 218.1,266.1 216.7,266.1 	"/>
	<polygon class="st0" points="285.4,266.1 284,266.1 284,262.9 281.3,262.9 281.3,266.1 279.1,266.1 279.1,268.8 281.3,268.8 
		281.3,272.8 284,272.8 284,268.8 285.4,268.8 	"/>
	<polygon class="st0" points="33.7,264.6 35.7,267.4 34.1,272.6 36.7,273.4 38.7,266.9 37.4,265 39.2,265 39.2,262.2 33.7,262.2 	
		"/>
	<polygon class="st0" points="272.5,264.6 274.4,267.4 272.8,272.6 275.5,273.4 277.5,266.9 276.1,265 277.9,265 277.9,262.2 
		272.4,262.2 	"/>
	<polygon class="st0" points="191.2,264.6 193.1,267.3 191.6,270.7 191.4,273.8 196.6,273.8 196.6,271 194.4,271 196.2,267 
		194.8,265 196.6,265 196.6,262.2 191.1,262.2 	"/>
	<polygon class="st0" points="265.8,264.6 267.7,267.3 266.1,270.7 266,273.8 271.2,273.8 271.2,271 269,271 270.8,267 269.4,265 
		271.2,265 271.2,262.2 265.7,262.2 	"/>
	<polygon class="st0" points="40.8,273.4 45.1,273.4 45.1,270.7 43.5,270.7 43.5,265 45.1,265 45.1,262.2 40.8,262.2 	"/>
	<polygon class="st0" points="101.8,273.6 106.2,273.6 106.2,270.8 104.6,270.8 104.6,265.1 106.2,265.1 106.2,262.4 101.8,262.4 	
		"/>
	<polygon class="st0" points="177.8,273.6 182.1,273.6 182.1,270.8 180.5,270.8 180.5,265.1 182.1,265.1 182.1,262.4 177.8,262.4 	
		"/>
	<polygon class="st0" points="228.2,273.6 232.6,273.6 232.6,270.8 231,270.8 231,265.1 232.6,265.1 232.6,262.4 228.2,262.4 	"/>
	<rect x="55.1" y="262.9" class="st0" width="2.8" height="10.4"/>
	<rect x="89.5" y="262.9" class="st0" width="2.8" height="10.4"/>
	<polygon class="st0" points="157,270.7 156.2,270.7 156.2,262.9 153.4,262.9 153.4,270.7 153.4,270.7 153.4,273.4 159.8,273.4 
		159.8,273.4 159.8,273.4 159.8,262.9 157,262.9 	"/>
	<rect x="161.3" y="262.9" class="st0" width="2.8" height="10.4"/>
	<rect x="165" y="262.9" class="st0" width="2.8" height="10.4"/>
	<polygon class="st0" points="237.9,266.1 236.8,266.1 236.8,262.6 234.1,262.6 234.1,268.9 235.8,268.9 235.8,273.4 238.6,273.4 
		238.6,268.9 240.6,268.9 240.6,262.6 237.9,262.6 	"/>
	<path class="st0" d="M111.3,262.4c-1.6,0-2.9,1.1-2.9,2.5s1.3,2.5,2.9,2.5c1.7,0,3-1.1,3-2.5S112.9,262.4,111.3,262.4z
		 M111.3,265.8c-0.4,0-0.7-0.4-0.7-0.9c0-0.5,0.3-0.9,0.7-0.9c0.4,0,0.8,0.4,0.8,0.9C112,265.4,111.7,265.8,111.3,265.8z"/>
	<path class="st0" d="M111.3,268.1c-1.6,0-2.9,1.2-2.9,2.6c0,1.4,1.3,2.5,2.9,2.5c1.7,0,3-1.2,3-2.5
		C114.2,269.3,112.9,268.1,111.3,268.1z M111.3,271.5c-0.4,0-0.7-0.4-0.7-0.8c0-0.5,0.3-0.9,0.7-0.9c0.4,0,0.8,0.4,0.8,0.9
		C112,271.1,111.7,271.5,111.3,271.5z"/>
	<path class="st0" d="M49.8,262.4c-1.6,0-2.9,1.1-2.9,2.5s1.3,2.5,2.9,2.5c1.7,0,3-1.1,3-2.5S51.4,262.4,49.8,262.4z M49.8,265.8
		c-0.4,0-0.7-0.4-0.7-0.9c0-0.5,0.3-0.9,0.7-0.9c0.4,0,0.8,0.4,0.8,0.9C50.6,265.4,50.2,265.8,49.8,265.8z"/>
	<path class="st0" d="M49.8,268.1c-1.6,0-2.9,1.2-2.9,2.6c0,1.4,1.3,2.5,2.9,2.5c1.7,0,3-1.2,3-2.5
		C52.8,269.3,51.4,268.1,49.8,268.1z M49.8,271.5c-0.4,0-0.7-0.4-0.7-0.8c0-0.5,0.3-0.9,0.7-0.9c0.4,0,0.8,0.4,0.8,0.9
		C50.6,271.1,50.2,271.5,49.8,271.5z"/>
	<path class="st0" d="M119.1,262.4c-1.8,0-3.2,1.4-3.2,3.2v4.8c0,1.8,1.4,3.2,3.2,3.2c1.8,0,3.2-1.4,3.2-3.2v-4.8
		C122.4,263.8,120.9,262.4,119.1,262.4z M119.6,270.4c0,0.2-0.2,0.5-0.5,0.5c-0.2,0-0.5-0.2-0.5-0.5v-4.8c0-0.2,0.2-0.5,0.5-0.5
		c0.2,0,0.5,0.2,0.5,0.5V270.4z"/>
	<path class="st0" d="M186.8,262.4c-1.8,0-3.2,1.4-3.2,3.2v0.9h0v2.8h0v1.1c0,1.8,1.4,3.2,3.2,3.2c1.8,0,3.2-1.4,3.2-3.2v-4.8
		C190,263.8,188.5,262.4,186.8,262.4z M186.3,265.6c0-0.2,0.2-0.5,0.5-0.5c0.2,0,0.5,0.2,0.5,0.5v0.9h-0.9V265.6z M186.8,270.8
		c-0.2,0-0.5-0.2-0.5-0.5v-1.1h0.9v1.1C187.2,270.6,187,270.8,186.8,270.8z"/>
	<path class="st0" d="M261.6,262.4c-1.8,0-3.2,1.4-3.2,3.2v0.9h0v2.8h0v1.1c0,1.8,1.4,3.2,3.2,3.2c1.8,0,3.2-1.4,3.2-3.2v-4.8
		C264.8,263.8,263.3,262.4,261.6,262.4z M261.1,265.6c0-0.2,0.2-0.5,0.5-0.5c0.2,0,0.5,0.2,0.5,0.5v0.9h-0.9V265.6z M261.6,270.8
		c-0.2,0-0.5-0.2-0.5-0.5v-1.1h0.9v1.1C262,270.6,261.8,270.8,261.6,270.8z"/>
	<path class="st0" d="M245.5,262.4c-1.8,0-3.2,1.4-3.2,3.2v4.8c0,1.8,1.4,3.2,3.2,3.2s3.2-1.4,3.2-3.2v-4.8
		C248.7,263.8,247.3,262.4,245.5,262.4z M246,270.4c0,0.2-0.2,0.5-0.5,0.5c-0.2,0-0.5-0.2-0.5-0.5v-4.8c0-0.2,0.2-0.5,0.5-0.5
		c0.2,0,0.5,0.2,0.5,0.5V270.4z"/>
	<path class="st0" d="M148.6,265.8c-1.8,0-3.2,1.4-3.2,3.2v1.4c0,1.8,1.4,3.2,3.2,3.2s3.2-1.4,3.2-3.2V269
		C151.8,267.2,150.3,265.8,148.6,265.8z M149,270.4c0,0.2-0.2,0.5-0.5,0.5c-0.2,0-0.5-0.2-0.5-0.5V269c0-0.2,0.2-0.5,0.5-0.5
		c0.2,0,0.5,0.2,0.5,0.5V270.4z"/>
	<path class="st0" d="M97,265.8c-1.8,0-3.2,1.4-3.2,3.2v1.4c0,1.8,1.4,3.2,3.2,3.2s3.2-1.4,3.2-3.2V269
		C100.3,267.2,98.8,265.8,97,265.8z M97.5,270.4c0,0.2-0.2,0.5-0.5,0.5c-0.2,0-0.5-0.2-0.5-0.5V269c0-0.2,0.2-0.5,0.5-0.5
		c0.2,0,0.5,0.2,0.5,0.5V270.4z"/>
	<path class="st0" d="M28.9,265.8c-1.8,0-3.2,1.4-3.2,3.2v1.4c0,1.8,1.4,3.2,3.2,3.2c1.8,0,3.2-1.4,3.2-3.2V269
		C32.1,267.2,30.6,265.8,28.9,265.8z M29.3,270.4c0,0.2-0.2,0.5-0.5,0.5s-0.5-0.2-0.5-0.5V269c0-0.2,0.2-0.5,0.5-0.5
		s0.5,0.2,0.5,0.5V270.4z"/>
	<path class="st0" d="M84.3,265.8c-1.8,0-3.2,1.4-3.2,3.2v1.4c0,1.8,1.4,3.2,3.2,3.2c1.8,0,3.2-1.4,3.2-3.2V269
		C87.5,267.2,86.1,265.8,84.3,265.8z M84.8,270.4c0,0.2-0.2,0.5-0.5,0.5c-0.2,0-0.5-0.2-0.5-0.5V269c0-0.2,0.2-0.5,0.5-0.5
		c0.2,0,0.5,0.2,0.5,0.5V270.4z"/>
	<path class="st0" d="M172.7,265.8c-1.8,0-3.2,1.4-3.2,3.2v1.4c0,1.8,1.4,3.2,3.2,3.2s3.2-1.4,3.2-3.2V269
		C176,267.2,174.5,265.8,172.7,265.8z M173.2,270.4c0,0.2-0.2,0.5-0.5,0.5s-0.5-0.2-0.5-0.5V269c0-0.2,0.2-0.5,0.5-0.5
		s0.5,0.2,0.5,0.5V270.4z"/>
	<path class="st0" d="M223.2,265.8c-1.8,0-3.2,1.4-3.2,3.2v1.4c0,1.8,1.4,3.2,3.2,3.2s3.2-1.4,3.2-3.2V269
		C226.5,267.2,225,265.8,223.2,265.8z M223.7,270.4c0,0.2-0.2,0.5-0.5,0.5s-0.5-0.2-0.5-0.5V269c0-0.2,0.2-0.5,0.5-0.5
		s0.5,0.2,0.5,0.5V270.4z"/>
	<path class="st0" d="M253.2,265.8c-1.8,0-3.2,1.4-3.2,3.2v1.4c0,1.8,1.4,3.2,3.2,3.2s3.2-1.4,3.2-3.2V269
		C256.4,267.2,254.9,265.8,253.2,265.8z M253.6,270.4c0,0.2-0.2,0.5-0.5,0.5s-0.5-0.2-0.5-0.5V269c0-0.2,0.2-0.5,0.5-0.5
		s0.5,0.2,0.5,0.5V270.4z"/>
</g>
</svg>
